<svg width="105" height="16" viewBox="0 0 105 16" fill="none" xmlns="http://www.w3.org/2000/svg">
<path d="M11.0527 9.68799V11.895H0.808578L0.671875 10.186L6.59958 0.781006H8.83588L6.41408 4.83398L3.46478 9.68799H11.0527ZM9.44138 0.781006V15H6.62888V0.781006H9.44138ZM12.8301 13.643C12.8301 13.226 12.9733 12.878 13.2598 12.598C13.5527 12.318 13.9401 12.178 14.4219 12.178C14.9036 12.178 15.288 12.318 15.574 12.598C15.867 12.878 16.014 13.226 16.014 13.643C16.014 14.059 15.867 14.408 15.574 14.688C15.288 14.967 14.9036 15.107 14.4219 15.107C13.9401 15.107 13.5527 14.967 13.2598 14.688C12.9733 14.408 12.8301 14.059 12.8301 13.643ZM21.023 8.52502L18.777 7.98798L19.588 0.781006H27.576V3.05701H21.902L21.551 6.211C21.74 6.1 22.026 5.98301 22.41 5.85901C22.794 5.72901 23.224 5.664 23.699 5.664C24.389 5.664 25.001 5.77102 25.535 5.98602C26.069 6.20102 26.521 6.51401 26.893 6.92401C27.27 7.33401 27.557 7.83498 27.752 8.42798C27.947 9.01998 28.045 9.69103 28.045 10.439C28.045 11.071 27.947 11.673 27.752 12.246C27.557 12.812 27.26 13.32 26.863 13.77C26.466 14.212 25.968 14.561 25.369 14.814C24.77 15.068 24.061 15.195 23.24 15.195C22.628 15.195 22.036 15.104 21.463 14.922C20.896 14.74 20.385 14.469 19.93 14.111C19.48 13.753 19.119 13.32 18.846 12.812C18.579 12.298 18.439 11.712 18.426 11.055H21.219C21.258 11.458 21.362 11.807 21.531 12.1C21.707 12.386 21.938 12.607 22.225 12.764C22.511 12.92 22.846 12.998 23.23 12.998C23.589 12.998 23.895 12.93 24.148 12.793C24.402 12.656 24.607 12.467 24.764 12.227C24.92 11.979 25.034 11.693 25.105 11.367C25.184 11.035 25.223 10.677 25.223 10.293C25.223 9.90903 25.177 9.56099 25.086 9.24799C24.995 8.93599 24.855 8.66499 24.666 8.43799C24.477 8.20999 24.236 8.03397 23.943 7.90997C23.657 7.78597 23.322 7.72498 22.938 7.72498C22.417 7.72498 22.013 7.80599 21.727 7.96899C21.447 8.13199 21.212 8.31702 21.023 8.52502Z" fill="black"/>
<path d="M40 3.51398L41.1 6.65698L41.217 6.99103H41.572H45.022L42.263 8.85303L41.944 9.06799L42.071 9.43201L43.145 12.501L40.28 10.568L40 10.38L39.72 10.568L36.855 12.501L37.929 9.43201L38.056 9.06799L37.737 8.85303L34.978 6.99103H38.428H38.783L38.9 6.65698L40 3.51398Z" fill="#B4690E" stroke="#B4690E"/>
<path d="M55 3.51398L56.1 6.65698L56.217 6.99103H56.572H60.022L57.263 8.85303L56.944 9.06799L57.071 9.43201L58.145 12.501L55.28 10.568L55 10.38L54.72 10.568L51.855 12.501L52.929 9.43201L53.056 9.06799L52.737 8.85303L49.978 6.99103H53.428H53.783L53.9 6.65698L55 3.51398Z" fill="#B4690E" stroke="#B4690E"/>
<path d="M70 3.51398L71.1 6.65698L71.217 6.99103H71.572H75.022L72.263 8.85303L71.944 9.06799L72.071 9.43201L73.145 12.501L70.28 10.568L70 10.38L69.72 10.568L66.855 12.501L67.929 9.43201L68.056 9.06799L67.737 8.85303L64.978 6.99103H68.428H68.783L68.9 6.65698L70 3.51398Z" fill="#B4690E" stroke="#B4690E"/>
<path d="M84 3.51398L85.1 6.65698L85.217 6.99103H85.572H89.022L86.263 8.85303L85.944 9.06799L86.071 9.43201L87.145 12.501L84.28 10.568L84 10.38L83.72 10.568L80.855 12.501L81.929 9.43201L82.056 9.06799L81.737 8.85303L78.978 6.99103H82.428H82.783L82.9 6.65698L84 3.51398Z" fill="#B4690E" stroke="#B4690E"/>
<path d="M98 3.51398L99.1 6.65698L99.217 6.99103H99.572H103.022L100.263 8.85303L99.944 9.06799L100.071 9.43201L101.145 12.501L98.28 10.568L98 10.38L97.72 10.568L94.855 12.501L95.929 9.43201L96.056 9.06799L95.737 8.85303L92.978 6.99103H96.428H96.783L96.9 6.65698L98 3.51398Z" stroke="#B4690E"/>
<mask id="mask0_11_5" style="mask-type:luminance" maskUnits="userSpaceOnUse" x="91" y="2" width="7" height="12">
<path d="M98 2H91V14H98V2Z" fill="white"/>
</mask>
<g mask="url(#mask0_11_5)">
<path d="M978 -1484H-462V778H978V-1484Z" fill="white"/>
<path d="M98 3.51392L99.1 6.65692L99.217 6.99097H99.572H103.022L100.263 8.85297L99.944 9.06793L100.071 9.43195L101.145 12.5009L98.28 10.5679L98 10.3799L97.72 10.5679L94.855 12.5009L95.929 9.43195L96.056 9.06793L95.737 8.85297L92.978 6.99097H96.428H96.783L96.9 6.65692L98 3.51392Z" fill="#B4690E" stroke="#B4690E"/>
</g>
</svg>
