<svg width="75" height="50" viewBox="0 0 75 50" fill="none" xmlns="http://www.w3.org/2000/svg">
<g clip-path="url(#clip0_29_2)">
<path fill-rule="evenodd" clip-rule="evenodd" d="M1.95309 15.4329C0.011097 20.0011 -0.49702 25.0277 0.493074 29.8773C1.48305 34.7268 3.92677 39.1814 7.51504 42.6777C11.1033 46.1739 15.6752 48.555 20.6522 49.5196C25.6296 50.4843 30.7884 49.9891 35.4769 48.097C40.1651 46.2048 44.1724 43.0004 46.9916 38.8893C47.0668 38.7796 47.1411 38.6695 47.2144 38.5588C47.2661 38.4807 47.3175 38.4021 47.3685 38.3234V50H49.3421C54.4168 50 59.3775 48.5338 63.5968 45.7866C67.8163 43.0398 71.1049 39.1352 73.0468 34.567C74.9889 29.9989 75.4971 24.9723 74.5069 20.1227C73.5169 15.2732 71.0734 10.8186 67.485 7.32236C63.8966 3.82598 59.3248 1.44502 54.3478 0.480431C49.3704 -0.484276 44.2116 0.0108133 39.5231 1.90302C34.8349 3.79523 30.8276 6.99957 28.0084 11.1108C27.8801 11.2979 27.7545 11.4866 27.6315 11.6766V1.49063e-05H25.6579C20.5832 1.49063e-05 15.6225 1.46627 11.4031 4.21332C7.18376 6.96025 3.89511 10.8647 1.95309 15.4329ZM23.6843 25V3.93373C20.0869 4.2537 16.6171 5.44459 13.5962 7.4112C10.0259 9.73559 7.24327 13.0395 5.60002 16.9048C3.95677 20.7702 3.52684 25.0234 4.36455 29.127C5.20226 33.2304 7.27003 36.9996 10.3062 39.958C13.3425 42.9164 17.211 44.9311 21.4224 45.7473C25.6339 46.5636 29.9991 46.1446 33.9662 44.5436C37.7739 43.0068 41.0507 40.4471 43.4173 37.1679C41.6237 37.9975 39.6174 38.4616 37.5 38.4616C29.8699 38.4616 23.6843 32.4345 23.6843 25ZM51.3158 46.0663V25C51.3158 17.5654 45.1301 11.5385 37.5 11.5385C35.3826 11.5385 33.3763 12.0026 31.5827 12.8322C33.9493 9.55284 37.2261 6.99311 41.0338 5.45643C45.0009 3.85532 49.3661 3.43641 53.5776 4.25264C57.789 5.06886 61.6575 7.08361 64.6939 10.0419C67.7301 13.0004 69.7978 16.7696 70.6354 20.873C71.4731 24.9766 71.0432 29.2298 69.3999 33.0952C67.7569 36.9605 64.9742 40.2645 61.4038 42.5888C58.383 44.5554 54.9131 45.7463 51.3158 46.0663ZM37.3026 34.6136C32.0091 34.5123 27.7374 30.35 27.6336 25.1923H31.3671C34.3123 25.8464 36.6309 28.1054 37.3026 30.9752V34.6136ZM37.6972 34.6136C42.9907 34.5123 47.2626 30.35 47.3664 25.1923H43.6329C40.6873 25.8464 38.3687 28.1057 37.6972 30.9759V34.6136ZM47.3664 24.8077C47.2626 19.65 42.9907 15.4877 37.6972 15.3865V19.0241C38.3687 21.8941 40.6871 24.1534 43.6324 24.8077H47.3664ZM37.3026 15.3865C32.0092 15.4877 27.7374 19.65 27.6336 24.8077H31.3676C34.3127 24.1534 36.6311 21.8945 37.3026 19.0248V15.3865Z" fill="white"/>
</g>
<defs>
<clipPath id="clip0_29_2">
<rect width="75" height="50" fill="white"/>
</clipPath>
</defs>
</svg>
