<svg width="76" height="53" viewBox="0 0 76 53" fill="none" xmlns="http://www.w3.org/2000/svg">
<g clip-path="url(#clip0_29_2)">
<path fill-rule="evenodd" clip-rule="evenodd" d="M1.97913 16.3588C0.0112449 21.2011 -0.503646 26.5293 0.499648 31.67C1.50282 36.8104 3.97913 41.5323 7.61524 45.2383C11.2513 48.9444 15.8842 51.4683 20.9275 52.4908C25.9713 53.5133 31.1989 52.9885 35.9499 50.9828C40.7007 48.9771 44.7613 45.5804 47.6182 41.2226C47.6944 41.1064 47.7696 40.9896 47.8439 40.8723C47.8963 40.7896 47.9484 40.7063 48.0001 40.6228V53H50C55.1424 53 60.1692 51.4458 64.4448 48.5338C68.7205 45.6222 72.0529 41.4833 74.0208 36.641C75.9888 31.7989 76.5037 26.4707 75.5003 21.33C74.4971 16.1896 72.021 11.4677 68.3848 7.7617C64.7486 4.05554 60.1158 1.53172 55.0724 0.509257C50.0287 -0.513333 44.8011 0.0114621 40.0501 2.0172C35.2993 4.02295 31.2387 7.41955 28.3818 11.7774C28.2519 11.9757 28.1246 12.1758 27.9999 12.3772V1.58007e-05H26C20.8576 1.58007e-05 15.8308 1.55424 11.5552 4.46612C7.27955 7.37787 3.94704 11.5166 1.97913 16.3588ZM24 26.5V4.16976C20.3547 4.50892 16.8386 5.77127 13.7775 7.85587C10.1596 10.3197 7.33985 13.8218 5.67469 17.919C4.00953 22.0164 3.57386 26.5248 4.42274 30.8746C5.27163 35.2242 7.36697 39.2196 10.4436 42.3555C13.5204 45.4914 17.4404 47.6269 21.7081 48.4922C25.9757 49.3574 30.399 48.9133 34.4191 47.2162C38.2776 45.5872 41.598 42.874 43.9962 39.3979C42.1787 40.2774 40.1457 40.7693 38 40.7693C30.2681 40.7693 24 34.3805 24 26.5ZM52 48.8302V26.5C52 18.6194 45.7319 12.2308 38 12.2308C35.8543 12.2308 33.8213 12.7227 32.0038 13.6021C34.402 10.126 37.7224 7.41269 41.5809 5.78381C45.601 4.08664 50.0243 3.6426 54.2919 4.5078C58.5595 5.37299 62.4796 7.50862 65.5565 10.6444C68.6331 13.7804 70.7284 17.7758 71.5772 22.1254C72.4261 26.4752 71.9904 30.9836 70.3253 35.0809C68.6603 39.1782 65.8405 42.6803 62.2225 45.1441C59.1614 47.2287 55.6453 48.491 52 48.8302ZM37.7999 36.6904C32.4358 36.5831 28.1073 32.171 28.002 26.7039H31.7853C34.7698 27.3972 37.1193 29.7917 37.7999 32.8337V36.6904ZM38.1999 36.6904C43.564 36.5831 47.8927 32.171 47.998 26.7039H44.2147C41.2298 27.3972 38.8803 29.7921 38.1999 32.8344V36.6904ZM47.998 26.2961C47.8927 20.829 43.564 16.4169 38.1999 16.3097V20.1656C38.8803 23.2078 41.2296 25.6026 44.2141 26.2961H47.998ZM37.7999 16.3097C32.436 16.4169 28.1073 20.829 28.002 26.2961H31.7859C34.7702 25.6026 37.1195 23.2081 37.7999 20.1663V16.3097Z" fill="white"/>
</g>
<defs>
<clipPath id="clip0_29_2">
<rect width="76" height="53" fill="white"/>
</clipPath>
</defs>
</svg>
