<svg width="128" height="51" viewBox="0 0 128 51" fill="none" xmlns="http://www.w3.org/2000/svg">
<g clip-path="url(#clip0_29_21)">
<path d="M6.08185 5.39963C6.41335 3.82628 7.9816 2.55 9.57918 2.55H18.2645L11.0416 36.7493H2.3563C0.757452 36.7493 -0.270198 35.4743 0.062577 33.8997L6.08185 5.39963ZM35.0333 5.39963C35.3661 3.82628 36.933 2.55 38.5306 2.55H47.2159L39.993 36.7493H31.3077C29.7089 36.7493 28.6812 35.4743 29.014 33.8997L35.0333 5.39963ZM92.9374 5.39963C93.2689 3.82628 94.8346 2.55 96.4347 2.55H105.12L97.8971 36.7493H89.2106C87.6117 36.7493 86.5853 35.4743 86.9181 33.8997L92.9374 5.39963ZM50.1114 2.55H58.7967C60.3956 2.55 61.4232 3.825 61.0905 5.39963L55.0712 33.8997C54.7397 35.4743 53.1727 36.7493 51.5739 36.7493H42.8886L50.1114 2.55ZM108.016 2.55H116.701C118.3 2.55 119.327 3.825 118.995 5.39963L112.974 33.8997C112.643 35.4743 111.077 36.7493 109.478 36.7493H100.791L108.016 2.55ZM63.986 5.39963C64.3175 3.82628 65.8832 2.55 67.482 2.55H76.1686L68.9445 36.7493H60.2592C58.6603 36.7493 57.6327 35.4743 57.9667 33.8997L63.9847 5.39963H63.986ZM79.0629 2.55H87.7494C89.3483 2.55 90.3746 3.825 90.0419 5.39963L81.0136 48.1504C80.6796 49.7237 79.1139 51 77.515 51H68.8284L79.0629 2.55ZM16.3443 25.3496H27.9252L26.1198 33.8997C25.787 35.4743 24.22 36.7493 22.6224 36.7493H13.9359L16.3431 25.3508L16.3443 25.3496ZM56.7631 39.6002H68.3427L65.9355 51H57.2502C55.65 51 54.6237 49.725 54.9564 48.1504L56.7631 39.6002ZM88.197 42.2509L86.7307 49.1946C86.6669 49.493 86.5675 49.5746 86.264 49.5746H85.5972C85.2938 49.5746 85.2275 49.493 85.2912 49.1946L86.7575 42.2509C86.8212 41.9539 86.9207 41.871 87.2241 41.871H87.8909C88.1944 41.871 88.2607 41.9539 88.197 42.2509ZM90.1247 46.9353H89.9883C89.843 46.9353 89.792 46.9761 89.7626 47.1202L89.324 49.1946C89.2603 49.493 89.1596 49.5746 88.8574 49.5746H88.1893C87.8871 49.5746 87.8208 49.493 87.8833 49.1946L89.3495 42.2509C89.4133 41.9539 89.5153 41.871 89.8175 41.871H91.1945C92.7806 41.871 93.3811 42.4358 93.0878 43.8217L92.843 44.9833C92.5498 46.3705 91.7108 46.9353 90.1247 46.9353ZM90.5276 43.4941L90.1451 45.3122C90.1133 45.4563 90.1464 45.4971 90.293 45.4971H90.5123C91.0223 45.4971 91.2965 45.2918 91.4074 44.7678L91.5604 44.0385C91.6713 43.5158 91.4852 43.3092 90.9739 43.3092H90.7546C90.6092 43.3092 90.5582 43.35 90.5276 43.4941ZM95.2936 44.6135L96.3773 45.8056C96.946 46.4215 97.025 46.7912 96.8797 47.4797L96.8414 47.6646C96.5673 48.9587 95.9145 49.6778 94.4011 49.6778C92.8889 49.6778 92.5154 49.0722 92.8647 47.4172L92.9081 47.2132C92.9718 46.9149 93.0725 46.832 93.3747 46.832H94.0836C94.3871 46.832 94.4534 46.9149 94.3896 47.212L94.294 47.6646C94.2073 48.0751 94.3399 48.2396 94.7045 48.2396C95.0705 48.2396 95.2694 48.0866 95.3484 47.7169L95.3892 47.5205C95.4504 47.2324 95.4173 47.0896 95.1036 46.7504L94.0836 45.6514C93.5124 45.0457 93.4398 44.6951 93.5851 44.0066L93.6323 43.7822C93.9064 42.4881 94.5592 41.7677 96.0713 41.7677C97.5848 41.7677 97.9583 42.3746 97.609 44.0283L97.5657 44.2336C97.5019 44.5319 97.4012 44.6135 97.099 44.6135H96.3888C96.0866 44.6135 96.0203 44.5319 96.0828 44.2336L96.1784 43.7822C96.2651 43.3704 96.1338 43.2072 95.7679 43.2072C95.4032 43.2072 95.2031 43.3602 95.1253 43.7299L95.0883 43.9046C95.0246 44.203 95.0577 44.347 95.2936 44.6135ZM101.403 42.2509C101.467 41.9539 101.567 41.871 101.87 41.871H102.537C102.84 41.871 102.907 41.9539 102.843 42.2509L101.751 47.4185C101.402 49.0722 100.774 49.6778 99.2601 49.6778C97.748 49.6778 97.3744 49.0722 97.7237 47.4172L98.8151 42.2509C98.8789 41.9539 98.9796 41.871 99.2818 41.871H99.9499C100.252 41.871 100.318 41.9539 100.256 42.2509L99.1122 47.6646C99.0255 48.0751 99.1683 48.2396 99.5648 48.2396C99.9499 48.2396 100.173 48.0751 100.26 47.6646L101.403 42.2509ZM105.746 46.4317C105.75 46.5145 105.777 46.5337 105.829 46.5337C105.88 46.5337 105.917 46.5145 105.955 46.4317L107.758 42.1387C107.846 41.922 107.951 41.871 108.212 41.871H109.224C109.526 41.871 109.593 41.9539 109.53 42.2509L108.064 49.1946C108 49.493 107.898 49.5746 107.596 49.5746H107.117C106.814 49.5746 106.747 49.493 106.811 49.1946L107.514 45.8668C107.534 45.775 107.517 45.7534 107.455 45.7534C107.412 45.7534 107.365 45.7751 107.34 45.8465L105.884 49.2367C105.779 49.4827 105.645 49.5746 105.343 49.5746H105.06C104.746 49.5746 104.652 49.4827 104.652 49.2367L104.616 45.8452C104.61 45.7738 104.593 45.7534 104.541 45.7534C104.479 45.7534 104.453 45.775 104.434 45.8668L103.732 49.1946C103.668 49.493 103.568 49.5746 103.265 49.5746H102.785C102.482 49.5746 102.416 49.493 102.479 49.1946L103.946 42.2509C104.009 41.9539 104.11 41.871 104.412 41.871H105.279C105.644 41.871 105.761 41.9539 105.759 42.3134L105.745 46.4317H105.746ZM127.5 2.55C127.5 3.95887 126.365 5.1 124.967 5.1C124.633 5.099 124.303 5.03223 123.995 4.90353C123.687 4.77482 123.407 4.58669 123.172 4.34988C122.936 4.11307 122.75 3.83223 122.623 3.5234C122.497 3.21457 122.432 2.88381 122.433 2.55C122.433 1.14112 123.568 0 124.967 0C126.365 0 127.5 1.14112 127.5 2.55Z" fill="white"/>
</g>
<defs>
<clipPath id="clip0_29_21">
<rect width="127.5" height="51" fill="white"/>
</clipPath>
</defs>
</svg>
