<svg width="224" height="50" viewBox="0 0 224 50" fill="none" xmlns="http://www.w3.org/2000/svg">
<g clip-path="url(#clip0_29_17)">
<path fill-rule="evenodd" clip-rule="evenodd" d="M19.0909 35C17.4032 35 15.7846 34.3415 14.5911 33.1694C13.3977 31.9973 12.7273 30.4076 12.7273 28.75V0H0V28.75C0 39.105 8.54764 47.5 19.0909 47.5H33.0909V35H19.0909ZM57.2727 12.5C55.7685 12.5 54.279 12.791 52.8893 13.3564C51.4995 13.9217 50.2368 14.7504 49.1731 15.795C48.1095 16.8397 47.2658 18.0799 46.6901 19.4448C46.1145 20.8097 45.8182 22.2726 45.8182 23.75C45.8182 25.2274 46.1145 26.6903 46.6901 28.0552C47.2658 29.4201 48.1095 30.6603 49.1731 31.705C50.2368 32.7496 51.4995 33.5783 52.8893 34.1436C54.279 34.709 55.7685 35 57.2727 35C60.3107 35 63.2242 33.8147 65.3723 31.705C67.5205 29.5952 68.7273 26.7337 68.7273 23.75C68.7273 20.7663 67.5205 17.9048 65.3723 15.795C63.2242 13.6853 60.3107 12.5 57.2727 12.5ZM33.0909 23.75C33.0909 10.6337 43.918 0 57.2727 0C70.6275 0 81.4545 10.6337 81.4545 23.75C81.4545 36.8663 70.6275 47.5 57.2727 47.5C43.918 47.5 33.0909 36.8663 33.0909 23.75ZM194.727 12.5C191.689 12.5 188.776 13.6853 186.628 15.795C184.48 17.9048 183.273 20.7663 183.273 23.75C183.273 26.7337 184.48 29.5952 186.628 31.705C188.776 33.8147 191.689 35 194.727 35C197.765 35 200.679 33.8147 202.827 31.705C204.975 29.5952 206.182 26.7337 206.182 23.75C206.182 20.7663 204.975 17.9048 202.827 15.795C200.679 13.6853 197.765 12.5 194.727 12.5ZM170.545 23.75C170.545 10.6337 181.373 0 194.727 0C208.082 0 218.909 10.6337 218.909 23.75C218.909 36.8663 208.082 47.5 194.727 47.5C181.373 47.5 170.545 36.8663 170.545 23.75ZM108.182 0C94.8271 0 84 10.6337 84 23.75C84 36.8663 94.8271 47.5 108.182 47.5H143.818C146.324 47.5 148.741 47.125 151.014 46.43L157.818 50L165.159 36.495C167.024 33.0571 168 29.2216 168 25.3262V23.75C168 10.6337 157.173 0 143.818 0H108.182ZM155.273 23.75C155.273 20.7663 154.066 17.9048 151.918 15.795C149.77 13.6853 146.856 12.5 143.818 12.5H108.182C106.678 12.5 105.188 12.791 103.798 13.3564C102.409 13.9217 101.146 14.7504 100.082 15.795C99.0186 16.8397 98.1748 18.0799 97.5992 19.4448C97.0235 20.8097 96.7273 22.2726 96.7273 23.75C96.7273 25.2274 97.0235 26.6903 97.5992 28.0552C98.1748 29.4201 99.0186 30.6603 100.082 31.705C101.146 32.7496 102.409 33.5783 103.798 34.1436C105.188 34.709 106.678 35 108.182 35H143.818C146.841 35.0001 149.741 33.8268 151.886 31.7359C154.032 29.6451 155.249 26.806 155.273 23.8375V23.75Z" fill="white"/>
<path d="M224 3.125C224 3.9538 223.665 4.74866 223.068 5.33471C222.471 5.92076 221.662 6.25 220.818 6.25C219.974 6.25 219.165 5.92076 218.568 5.33471C217.972 4.74866 217.636 3.9538 217.636 3.125C217.636 2.2962 217.972 1.50134 218.568 0.915291C219.165 0.32924 219.974 0 220.818 0C221.662 0 222.471 0.32924 223.068 0.915291C223.665 1.50134 224 2.2962 224 3.125Z" fill="white"/>
</g>
<defs>
<clipPath id="clip0_29_17">
<rect width="224" height="50" fill="white"/>
</clipPath>
</defs>
</svg>
