<svg width="127" height="50" viewBox="0 0 127 50" fill="none" xmlns="http://www.w3.org/2000/svg">
<g clip-path="url(#clip0_29_21)">
<path d="M6.058 5.29375C6.3882 3.75125 7.9503 2.5 9.54161 2.5H18.1929L10.9983 36.0287H2.34706C0.754482 36.0287 -0.269138 34.7787 0.0623316 33.235L6.058 5.29375ZM34.8959 5.29375C35.2274 3.75125 36.7882 2.5 38.3795 2.5H47.0307L39.8362 36.0287H31.185C29.5924 36.0287 28.5688 34.7787 28.9002 33.235L34.8959 5.29375ZM92.5729 5.29375C92.9031 3.75125 94.4627 2.5 96.0565 2.5H104.708L97.5132 36.0287H88.8607C87.2681 36.0287 86.2458 34.7787 86.5773 33.235L92.5729 5.29375ZM49.9149 2.5H58.5662C60.1587 2.5 61.1824 3.75 60.8509 5.29375L54.8552 33.235C54.525 34.7787 52.9642 36.0287 51.3716 36.0287H42.7204L49.9149 2.5ZM107.592 2.5H116.243C117.836 2.5 118.859 3.75 118.528 5.29375L112.531 33.235C112.201 34.7787 110.641 36.0287 109.049 36.0287H100.396L107.592 2.5ZM63.7351 5.29375C64.0653 3.75125 65.6248 2.5 67.2174 2.5H75.8699L68.6741 36.0287H60.0228C58.4303 36.0287 57.4066 34.7787 57.7394 33.235L63.7338 5.29375H63.7351ZM78.7528 2.5H87.4053C88.9979 2.5 90.0202 3.75 89.6888 5.29375L80.6959 47.2062C80.3632 48.7487 78.8036 50 77.211 50H68.5585L78.7528 2.5ZM16.2802 24.8525H27.8156L26.0173 33.235C25.6859 34.7787 24.125 36.0287 22.5337 36.0287H13.8812L16.279 24.8537L16.2802 24.8525ZM56.5405 38.8238H68.0746L65.6769 50H57.0256C55.4318 50 54.4094 48.75 54.7409 47.2062L56.5405 38.8238ZM87.8511 41.4225L86.3906 48.23C86.3271 48.5225 86.228 48.6025 85.9258 48.6025H85.2615C84.9593 48.6025 84.8932 48.5225 84.9567 48.23L86.4172 41.4225C86.4807 41.1313 86.5798 41.05 86.8821 41.05H87.5463C87.8485 41.05 87.9146 41.1313 87.8511 41.4225ZM89.7713 46.015H89.6354C89.4906 46.015 89.4398 46.055 89.4106 46.1963L88.9738 48.23C88.9103 48.5225 88.8099 48.6025 88.5089 48.6025H87.8435C87.5425 48.6025 87.4764 48.5225 87.5387 48.23L88.9992 41.4225C89.0627 41.1313 89.1643 41.05 89.4652 41.05H90.8368C92.4167 41.05 93.0149 41.6037 92.7228 42.9625L92.479 44.1012C92.1869 45.4612 91.3512 46.015 89.7713 46.015ZM90.1726 42.6412L89.7916 44.4238C89.7599 44.565 89.7929 44.605 89.939 44.605H90.1574C90.6654 44.605 90.9384 44.4037 91.0489 43.89L91.2013 43.175C91.3118 42.6625 91.1264 42.46 90.6171 42.46H90.3987C90.2539 42.46 90.2031 42.5 90.1726 42.6412ZM94.9199 43.7388L95.9994 44.9075C96.5658 45.5112 96.6446 45.8737 96.4998 46.5487L96.4617 46.73C96.1886 47.9987 95.5384 48.7038 94.0309 48.7038C92.5247 48.7038 92.1526 48.11 92.5005 46.4875L92.5437 46.2875C92.6072 45.995 92.7076 45.9137 93.0085 45.9137H93.7147C94.0169 45.9137 94.083 45.995 94.0195 46.2862L93.9242 46.73C93.8379 47.1325 93.9699 47.2937 94.3332 47.2937C94.6976 47.2937 94.8958 47.1437 94.9745 46.7812L95.0151 46.5887C95.0761 46.3062 95.0431 46.1662 94.7307 45.8337L93.7147 44.7563C93.1457 44.1625 93.0733 43.8187 93.2181 43.1437L93.2651 42.9238C93.5381 41.655 94.1884 40.9487 95.6946 40.9487C97.2021 40.9487 97.5742 41.5438 97.2262 43.165L97.183 43.3663C97.1195 43.6588 97.0192 43.7388 96.7182 43.7388H96.0108C95.7098 43.7388 95.6438 43.6588 95.706 43.3663L95.8013 42.9238C95.8876 42.52 95.7568 42.36 95.3923 42.36C95.0291 42.36 94.8297 42.51 94.7523 42.8725L94.7154 43.0438C94.6519 43.3363 94.6849 43.4775 94.9199 43.7388ZM101.006 41.4225C101.069 41.1313 101.168 41.05 101.471 41.05H102.135C102.437 41.05 102.503 41.1313 102.44 41.4225L101.352 46.4888C101.004 48.11 100.378 48.7038 98.8709 48.7038C97.3646 48.7038 96.9925 48.11 97.3405 46.4875L98.4276 41.4225C98.4911 41.1313 98.5915 41.05 98.8925 41.05H99.5579C99.8589 41.05 99.925 41.1313 99.8627 41.4225L98.7235 46.73C98.6372 47.1325 98.7794 47.2937 99.1744 47.2937C99.5579 47.2937 99.7802 47.1325 99.8665 46.73L101.006 41.4225ZM105.331 45.5212C105.335 45.6025 105.362 45.6213 105.414 45.6213C105.465 45.6213 105.502 45.6025 105.54 45.5212L107.335 41.3125C107.423 41.1 107.527 41.05 107.788 41.05H108.796C109.097 41.05 109.163 41.1313 109.101 41.4225L107.64 48.23C107.577 48.5225 107.475 48.6025 107.174 48.6025H106.697C106.396 48.6025 106.328 48.5225 106.392 48.23L107.093 44.9675C107.112 44.8775 107.095 44.8562 107.033 44.8562C106.991 44.8562 106.944 44.8775 106.919 44.9475L105.469 48.2713C105.364 48.5125 105.231 48.6025 104.93 48.6025H104.648C104.336 48.6025 104.242 48.5125 104.242 48.2713L104.206 44.9463C104.2 44.8763 104.183 44.8562 104.131 44.8562C104.069 44.8562 104.044 44.8775 104.025 44.9675L103.325 48.23C103.261 48.5225 103.162 48.6025 102.86 48.6025H102.382C102.08 48.6025 102.014 48.5225 102.078 48.23L103.538 41.4225C103.602 41.1313 103.702 41.05 104.003 41.05H104.867C105.23 41.05 105.347 41.1313 105.344 41.4838L105.33 45.5212H105.331ZM127 2.5C127 3.88125 125.87 5 124.477 5C124.144 4.99902 123.815 4.93356 123.508 4.80738C123.201 4.68119 122.923 4.49675 122.689 4.26459C122.454 4.03242 122.269 3.75709 122.143 3.45432C122.016 3.15154 121.952 2.82726 121.953 2.5C121.953 1.11875 123.083 0 124.477 0C125.87 0 127 1.11875 127 2.5Z" fill="white"/>
</g>
<defs>
<clipPath id="clip0_29_21">
<rect width="127" height="50" fill="white"/>
</clipPath>
</defs>
</svg>
