<svg width="209" height="50" viewBox="0 0 209 50" fill="none" xmlns="http://www.w3.org/2000/svg">
<g clip-path="url(#clip0_29_4)">
<path fill-rule="evenodd" clip-rule="evenodd" d="M66.3375 3.32772C66.3375 1.63334 67.6169 0.259766 69.1953 0.259766H74.1738C75.2971 0.259766 76.3858 0.677691 77.2544 1.4424L78.7688 2.77567L78.8067 2.81275C78.8416 2.8001 78.8766 2.78773 78.9117 2.77567C81.6439 1.83617 84.9589 1.6575 88.3424 1.6575C91.7258 1.6575 95.0408 1.83617 97.7731 2.77567C97.8082 2.78773 97.8431 2.8001 97.8781 2.81275L97.9159 2.77567L99.4304 1.4424C100.299 0.677691 101.388 0.259766 102.511 0.259766H107.489C109.068 0.259766 110.347 1.63334 110.347 3.32772V5.22428C110.347 6.69166 109.772 8.09116 108.761 9.07945L107.539 10.2746C106.943 10.858 106.227 11.2826 105.449 11.5141L105.16 11.6001C106.293 14.5001 106.918 17.5998 106.918 20.1074C106.918 30.1944 101.104 34.5509 95.9818 38.3894C91.9477 41.4124 88.3424 44.114 88.3424 49.0403C88.3424 44.114 84.737 41.4124 80.703 38.3894C75.5805 34.5509 69.7668 30.1944 69.7668 20.1074C69.7668 17.5998 70.3922 14.5001 71.5243 11.6001L71.2353 11.5141C70.4577 11.2826 69.7418 10.858 69.1454 10.2746L67.9236 9.07945C66.9133 8.09116 66.3375 6.69166 66.3375 5.22428V3.32772ZM92.0575 28.354C92.0575 28.8359 91.8618 29.298 91.5134 29.6388C91.1651 29.9796 90.6926 30.171 90.1999 30.171C89.7746 30.171 89.3642 30.0282 89.0359 29.7699C89.5948 31.376 91.0251 32.8979 93.2006 30.4505C95.1212 28.1765 93.1152 23.3803 91.161 20.5342C90.5096 19.5855 89.4402 19.129 88.3424 19.129C87.2446 19.129 86.1752 19.5855 85.5238 20.5342C83.5695 23.3803 81.5636 28.1765 83.4841 30.4505C85.6597 32.8979 87.09 31.376 87.6489 29.7699C87.3205 30.0282 86.9102 30.171 86.4849 30.171C85.9921 30.171 85.5196 29.9796 85.1713 29.6388C84.823 29.298 84.6272 28.8359 84.6272 28.354H92.0575ZM81.2289 14.1563H76.054L80.1323 17.662C81.0297 18.4333 82.3415 18.1868 82.8968 17.1423C83.598 15.8235 82.6667 14.1563 81.2289 14.1563ZM95.4559 14.1563H100.631L96.5525 17.662C95.655 18.4333 94.3433 18.1868 93.788 17.1423C93.0868 15.8235 94.0181 14.1563 95.4559 14.1563Z" fill="white"/>
<path d="M116.512 34.8126H121.096V16.0443H116.512V34.8126ZM116.512 13.1175H121.096V8.65405H116.512V13.1175Z" fill="#CBCBCB"/>
<path d="M124.05 40.9588H128.635V32.6905H128.702C129.68 34.3003 131.264 35.3612 133.691 35.3612C138.141 35.3612 141.175 31.5198 141.175 25.4466C141.175 19.593 138.242 15.532 133.658 15.532C131.298 15.532 129.68 16.7393 128.568 18.3856H128.466V16.0442H124.05V40.9588ZM132.714 31.2271C129.983 31.2271 128.534 28.9954 128.534 25.593C128.534 22.2271 129.68 19.5564 132.545 19.5564C135.377 19.5564 136.523 22.0442 136.523 25.593C136.523 29.1417 135.04 31.2271 132.714 31.2271Z" fill="#CBCBCB"/>
<path d="M150.32 35.3612C154.635 35.3612 157.602 33.093 157.602 29.3247C157.602 24.9344 154.399 24.0564 151.5 23.3978C149.039 22.8491 146.747 22.7027 146.747 21.093C146.747 19.7393 147.927 19.0076 149.714 19.0076C151.669 19.0076 152.849 19.7393 153.051 21.7515H157.197C156.86 17.9832 154.332 15.532 149.781 15.532C145.837 15.532 142.736 17.471 142.736 21.532C142.736 25.6295 145.77 26.5442 148.871 27.2027C151.231 27.7149 153.422 27.8978 153.422 29.6905C153.422 31.0076 152.276 31.8491 150.253 31.8491C148.197 31.8491 146.781 30.8978 146.478 28.7393H142.23C142.5 32.7271 145.298 35.3612 150.32 35.3612Z" fill="#CBCBCB"/>
<path d="M175.008 34.8125V16.0442H170.424V26.8735C170.424 29.3613 169.109 31.1174 166.952 31.1174C164.996 31.1174 164.086 29.91 164.086 27.7149V16.0442H159.536V28.5564C159.536 32.6539 161.693 35.3247 165.536 35.3247C167.963 35.3247 169.311 34.3369 170.491 32.6174H170.592V34.8125H175.008Z" fill="#CBCBCB"/>
<path d="M177.974 34.8125H182.558V23.91C182.558 21.4222 183.805 19.8125 185.659 19.8125C187.345 19.8125 188.322 20.91 188.322 23.032V34.8125H192.907V23.91C192.907 21.4222 194.087 19.8125 196.008 19.8125C197.694 19.8125 198.671 20.91 198.671 23.032V34.8125H203.256V22.1905C203.256 18.093 201.2 15.532 197.559 15.532C195.368 15.532 193.547 16.7759 192.368 18.8247H192.3C191.457 16.8491 189.705 15.532 187.513 15.532C185.12 15.532 183.435 16.8491 182.491 18.5686H182.39V16.0442H177.974V34.8125Z" fill="#CBCBCB"/>
<path d="M0.768677 34.8126H5.35319V8.65405H0.768677V34.8126Z" fill="#CBCBCB"/>
<path d="M16.563 35.3612C21.9228 35.3612 25.5972 31.0442 25.5972 25.4466C25.5972 19.8491 21.9228 15.532 16.563 15.532C11.2031 15.532 7.52875 19.8491 7.52875 25.4466C7.52875 31.0442 11.2031 35.3612 16.563 35.3612ZM16.563 31.5564C13.7314 31.5564 12.1807 29.1052 12.1807 25.4466C12.1807 21.7881 13.7314 19.3003 16.563 19.3003C19.3609 19.3003 20.9453 21.7881 20.9453 25.4466C20.9453 29.1052 19.3609 31.5564 16.563 31.5564Z" fill="#CBCBCB"/>
<path d="M35.3466 41.2149C37.9086 41.2149 40.1334 40.5564 41.5829 39.093C42.8639 37.8125 43.6392 36.0198 43.6392 33.3856V16.0442H39.2232V18.0198H39.1558C38.1108 16.4466 36.5265 15.532 34.369 15.532C29.9868 15.532 26.8855 19.1173 26.8855 24.7149C26.8855 30.3856 30.661 33.6783 34.5039 33.6783C36.695 33.6783 38.0097 32.7271 39.021 31.4832H39.1221V33.532C39.1221 36.093 37.8749 37.4466 35.2792 37.4466C33.1555 37.4466 32.1779 36.532 31.8071 35.3612H27.2563C27.7282 39.0198 30.6273 41.2149 35.3466 41.2149ZM35.2792 29.6905C32.9195 29.6905 31.3689 27.8247 31.3689 24.6417C31.3689 21.4954 32.9195 19.5198 35.2455 19.5198C38.0097 19.5198 39.3581 21.8613 39.3581 24.6052C39.3581 27.3856 38.1782 29.6905 35.2792 29.6905Z" fill="#CBCBCB"/>
<path d="M54.7826 35.3612C60.1424 35.3612 63.8168 31.0442 63.8168 25.4466C63.8168 19.8491 60.1424 15.532 54.7826 15.532C49.4228 15.532 45.7484 19.8491 45.7484 25.4466C45.7484 31.0442 49.4228 35.3612 54.7826 35.3612ZM54.7826 31.5564C51.951 31.5564 50.4003 29.1052 50.4003 25.4466C50.4003 21.7881 51.951 19.3003 54.7826 19.3003C57.5805 19.3003 59.1649 21.7881 59.1649 25.4466C59.1649 29.1052 57.5805 31.5564 54.7826 31.5564Z" fill="#CBCBCB"/>
<path d="M203.049 11.9468C203.049 11.1049 203.677 10.4224 204.454 10.4224H207.263C208.038 10.4224 208.667 11.1049 208.667 11.9468C208.667 12.7886 208.038 13.4712 207.263 13.4712H204.454C203.677 13.4712 203.049 12.7886 203.049 11.9468Z" fill="#CBCBCB"/>
</g>
<defs>
<clipPath id="clip0_29_4">
<rect width="209" height="50" fill="white"/>
</clipPath>
</defs>
</svg>
