<svg width="214" height="51" viewBox="0 0 214 51" fill="none" xmlns="http://www.w3.org/2000/svg">
<g clip-path="url(#clip0_29_4)">
<path fill-rule="evenodd" clip-rule="evenodd" d="M67.9245 3.3942C67.9245 1.66594 69.2345 0.264893 70.8507 0.264893H75.9483C77.0985 0.264893 78.2132 0.691177 79.1026 1.47118L80.6533 2.83111L80.692 2.86894C80.7278 2.85603 80.7636 2.84342 80.7995 2.83111C83.5972 1.87282 86.9915 1.69058 90.4559 1.69058C93.9202 1.69058 97.3145 1.87282 100.112 2.83111C100.148 2.84342 100.184 2.85603 100.22 2.86894L100.258 2.83111L101.809 1.47118C102.698 0.691177 103.813 0.264893 104.963 0.264893H110.061C111.677 0.264893 112.987 1.66594 112.987 3.3942V5.3287C112.987 6.82542 112.398 8.25291 111.363 9.26097L110.112 10.48C109.501 11.0751 108.768 11.5082 107.972 11.7443L107.676 11.8321C108.835 14.79 109.476 17.9517 109.476 20.5095C109.476 30.7983 103.523 35.2419 98.278 39.1572C94.1475 42.2406 90.4559 44.9962 90.4559 50.021C90.4559 44.9962 86.7642 42.2406 82.6337 39.1572C77.3886 35.2419 71.4359 30.7983 71.4359 20.5095C71.4359 17.9517 72.0762 14.79 73.2354 11.8321L72.9395 11.7443C72.1433 11.5082 71.4103 11.0751 70.7996 10.48L69.5486 9.26097C68.5141 8.25291 67.9245 6.82542 67.9245 5.3287V3.3942ZM94.2599 28.921C94.2599 29.4126 94.0594 29.8839 93.7028 30.2315C93.3461 30.5791 92.8623 30.7744 92.3578 30.7744C91.9223 30.7744 91.5022 30.6287 91.166 30.3653C91.7382 32.0035 93.2028 33.5558 95.4303 31.0595C97.3968 28.74 95.3429 23.8478 93.3419 20.9448C92.6749 19.9772 91.5799 19.5115 90.4559 19.5115C89.3318 19.5115 88.2368 19.9772 87.5698 20.9448C85.5688 23.8478 83.5149 28.74 85.4814 31.0595C87.7089 33.5558 89.1735 32.0035 89.7457 30.3653C89.4096 30.6287 88.9894 30.7744 88.5539 30.7744C88.0494 30.7744 87.5656 30.5791 87.2089 30.2315C86.8523 29.8839 86.6518 29.4126 86.6518 28.921H94.2599ZM83.1721 14.4393H77.8735L82.0493 18.0152C82.9683 18.802 84.3114 18.5504 84.88 17.485C85.5979 16.1399 84.6444 14.4393 83.1721 14.4393ZM97.7396 14.4393H103.038L98.8624 18.0152C97.9434 18.802 96.6003 18.5504 96.0317 17.485C95.3138 16.1399 96.2673 14.4393 97.7396 14.4393Z" fill="white"/>
<path d="M119.299 35.5089H123.993V16.3652H119.299V35.5089ZM119.299 13.3798H123.993V8.82715H119.299V13.3798Z" fill="#CBCBCB"/>
<path d="M127.018 41.7781H131.712V33.3445H131.781C132.782 34.9864 134.405 36.0686 136.89 36.0686C141.446 36.0686 144.552 32.1503 144.552 25.9557C144.552 19.985 141.549 15.8428 136.855 15.8428C134.439 15.8428 132.782 17.0742 131.643 18.7535H131.54V16.3652H127.018V41.7781ZM135.889 31.8518C133.093 31.8518 131.609 29.5755 131.609 26.105C131.609 22.6718 132.782 19.9477 135.716 19.9477C138.616 19.9477 139.789 22.4852 139.789 26.105C139.789 29.7247 138.27 31.8518 135.889 31.8518Z" fill="#CBCBCB"/>
<path d="M153.917 36.0686C158.335 36.0686 161.372 33.755 161.372 29.9113C161.372 25.4333 158.093 24.5377 155.125 23.8659C152.605 23.3062 150.258 23.1569 150.258 21.515C150.258 20.1342 151.466 19.3879 153.295 19.3879C155.297 19.3879 156.505 20.1342 156.712 22.1867H160.958C160.613 18.343 158.024 15.8428 153.364 15.8428C149.326 15.8428 146.15 17.8206 146.15 21.9628C146.15 26.1423 149.257 27.0752 152.432 27.7469C154.849 28.2694 157.092 28.4559 157.092 30.2845C157.092 31.6279 155.919 32.4862 153.848 32.4862C151.742 32.4862 150.292 31.5159 149.982 29.3142H145.633C145.909 33.3818 148.774 36.0686 153.917 36.0686Z" fill="#CBCBCB"/>
<path d="M179.195 35.5089V16.3652H174.501V27.4111C174.501 29.9487 173.155 31.7399 170.946 31.7399C168.944 31.7399 168.012 30.5084 168.012 28.2694V16.3652H163.352V29.1277C163.352 33.3072 165.561 36.0313 169.496 36.0313C171.981 36.0313 173.362 35.0238 174.57 33.2699H174.673V35.5089H179.195Z" fill="#CBCBCB"/>
<path d="M182.231 35.5089H186.926V24.3884C186.926 21.8508 188.203 20.2089 190.101 20.2089C191.827 20.2089 192.828 21.3284 192.828 23.4928V35.5089H197.522V24.3884C197.522 21.8508 198.73 20.2089 200.697 20.2089C202.423 20.2089 203.424 21.3284 203.424 23.4928V35.5089H208.118V22.6345C208.118 18.455 206.013 15.8428 202.285 15.8428C200.042 15.8428 198.178 17.1116 196.97 19.2013H196.901C196.038 17.1862 194.243 15.8428 191.999 15.8428C189.549 15.8428 187.823 17.1862 186.857 18.9401H186.753V16.3652H182.231V35.5089Z" fill="#CBCBCB"/>
<path d="M0.787048 35.5089H5.48124V8.82715H0.787048V35.5089Z" fill="#CBCBCB"/>
<path d="M16.9592 36.0686C22.4473 36.0686 26.2096 31.6652 26.2096 25.9557C26.2096 20.2462 22.4473 15.8428 16.9592 15.8428C11.4711 15.8428 7.70886 20.2462 7.70886 25.9557C7.70886 31.6652 11.4711 36.0686 16.9592 36.0686ZM16.9592 32.1877C14.0599 32.1877 12.4721 29.6874 12.4721 25.9557C12.4721 22.224 14.0599 19.6864 16.9592 19.6864C19.8241 19.6864 21.4463 22.224 21.4463 25.9557C21.4463 29.6874 19.8241 32.1877 16.9592 32.1877Z" fill="#CBCBCB"/>
<path d="M36.1922 42.0394C38.8155 42.0394 41.0935 41.3677 42.5777 39.875C43.8893 38.5689 44.6832 36.7403 44.6832 34.0535V16.3652H40.1616V18.3803H40.0926C39.0226 16.7757 37.4003 15.8428 35.1913 15.8428C30.7042 15.8428 27.5287 19.4998 27.5287 25.2094C27.5287 30.9935 31.3945 34.352 35.3293 34.352C37.5729 34.352 38.919 33.3818 39.9545 32.113H40.058V34.2028C40.058 36.815 38.7809 38.1957 36.1232 38.1957C33.9487 38.1957 32.9477 37.2628 32.568 36.0686H27.9084C28.3916 39.8003 31.36 42.0394 36.1922 42.0394ZM36.1232 30.2845C33.7071 30.2845 32.1193 28.3813 32.1193 25.1347C32.1193 21.9255 33.7071 19.9103 36.0887 19.9103C38.919 19.9103 40.2997 22.2986 40.2997 25.0974C40.2997 27.9335 39.0916 30.2845 36.1232 30.2845Z" fill="#CBCBCB"/>
<path d="M56.0932 36.0686C61.5812 36.0686 65.3435 31.6652 65.3435 25.9557C65.3435 20.2462 61.5812 15.8428 56.0932 15.8428C50.6051 15.8428 46.8429 20.2462 46.8429 25.9557C46.8429 31.6652 50.6051 36.0686 56.0932 36.0686ZM56.0932 32.1877C53.1938 32.1877 51.6061 29.6874 51.6061 25.9557C51.6061 22.224 53.1938 19.6864 56.0932 19.6864C58.958 19.6864 60.5803 22.224 60.5803 25.9557C60.5803 29.6874 58.958 32.1877 56.0932 32.1877Z" fill="#CBCBCB"/>
<path d="M207.907 12.1857C207.907 11.327 208.55 10.6309 209.345 10.6309H212.221C213.015 10.6309 213.659 11.327 213.659 12.1857C213.659 13.0444 213.015 13.7406 212.221 13.7406H209.345C208.55 13.7406 207.907 13.0444 207.907 12.1857Z" fill="#CBCBCB"/>
</g>
<defs>
<clipPath id="clip0_29_4">
<rect width="214" height="51" fill="white"/>
</clipPath>
</defs>
</svg>
