<svg width="225" height="51" viewBox="0 0 225 51" fill="none" xmlns="http://www.w3.org/2000/svg">
<g clip-path="url(#clip0_29_17)">
<path fill-rule="evenodd" clip-rule="evenodd" d="M19.125 35.7C17.4342 35.7 15.8127 35.0284 14.6172 33.8328C13.4216 32.6373 12.75 31.0158 12.75 29.325V0H0V29.325C0 39.8871 8.5629 48.45 19.125 48.45H33.15V35.7H19.125ZM57.375 12.75C55.8681 12.75 54.3759 13.0468 52.9837 13.6235C51.5915 14.2002 50.3265 15.0454 49.2609 16.1109C48.1954 17.1765 47.3502 18.4415 46.7735 19.8337C46.1968 21.2259 45.9 22.7181 45.9 24.225C45.9 25.7319 46.1968 27.2241 46.7735 28.6163C47.3502 30.0085 48.1954 31.2735 49.2609 32.3391C50.3265 33.4046 51.5915 34.2498 52.9837 34.8265C54.3759 35.4032 55.8681 35.7 57.375 35.7C60.4184 35.7 63.3371 34.491 65.4891 32.3391C67.641 30.1871 68.85 27.2684 68.85 24.225C68.85 21.1816 67.641 18.2629 65.4891 16.1109C63.3371 13.959 60.4184 12.75 57.375 12.75ZM33.15 24.225C33.15 10.8464 43.9964 0 57.375 0C70.7536 0 81.6 10.8464 81.6 24.225C81.6 37.6036 70.7536 48.45 57.375 48.45C43.9964 48.45 33.15 37.6036 33.15 24.225ZM195.075 12.75C192.032 12.75 189.113 13.959 186.961 16.1109C184.809 18.2629 183.6 21.1816 183.6 24.225C183.6 27.2684 184.809 30.1871 186.961 32.3391C189.113 34.491 192.032 35.7 195.075 35.7C198.118 35.7 201.037 34.491 203.189 32.3391C205.341 30.1871 206.55 27.2684 206.55 24.225C206.55 21.1816 205.341 18.2629 203.189 16.1109C201.037 13.959 198.118 12.75 195.075 12.75ZM170.85 24.225C170.85 10.8464 181.696 0 195.075 0C208.454 0 219.3 10.8464 219.3 24.225C219.3 37.6036 208.454 48.45 195.075 48.45C181.696 48.45 170.85 37.6036 170.85 24.225ZM108.375 0C94.9964 0 84.15 10.8464 84.15 24.225C84.15 37.6036 94.9964 48.45 108.375 48.45H144.075C146.585 48.45 149.007 48.0675 151.284 47.3586L158.1 51L165.454 37.2249C167.322 33.7182 168.3 29.806 168.3 25.8328V24.225C168.3 10.8464 157.454 0 144.075 0H108.375ZM155.55 24.225C155.55 21.1816 154.341 18.2629 152.189 16.1109C150.037 13.959 147.118 12.75 144.075 12.75H108.375C106.868 12.75 105.376 13.0468 103.984 13.6235C102.591 14.2002 101.326 15.0454 100.261 16.1109C99.1954 17.1765 98.3502 18.4415 97.7735 19.8337C97.1968 21.2259 96.9 22.7181 96.9 24.225C96.9 25.7319 97.1968 27.2241 97.7735 28.6163C98.3502 30.0085 99.1954 31.2735 100.261 32.3391C101.326 33.4046 102.591 34.2498 103.984 34.8265C105.376 35.4032 106.868 35.7 108.375 35.7H144.075C147.103 35.7001 150.008 34.5034 152.158 32.3707C154.307 30.238 155.526 27.3421 155.55 24.3142V24.225Z" fill="white"/>
<path d="M224.4 3.1875C224.4 4.03288 224.064 4.84363 223.466 5.4414C222.869 6.03917 222.058 6.375 221.212 6.375C220.367 6.375 219.556 6.03917 218.959 5.4414C218.361 4.84363 218.025 4.03288 218.025 3.1875C218.025 2.34212 218.361 1.53137 218.959 0.933597C219.556 0.335825 220.367 0 221.212 0C222.058 0 222.869 0.335825 223.466 0.933597C224.064 1.53137 224.4 2.34212 224.4 3.1875Z" fill="white"/>
</g>
<defs>
<clipPath id="clip0_29_17">
<rect width="224.4" height="51" fill="white"/>
</clipPath>
</defs>
</svg>
