<svg width="160" height="50" viewBox="0 0 160 50" fill="none" xmlns="http://www.w3.org/2000/svg">
<path fill-rule="evenodd" clip-rule="evenodd" d="M79.1027 8.05169C80.6132 6.54332 83.0622 6.54332 84.5727 8.05169C86.0833 9.56017 86.0833 12.0058 84.5727 13.5143L75.3636 22.711C72.7196 19.1723 73.0068 14.1394 76.2253 10.9253L79.1027 8.05169Z" fill="#BABABA"/>
<path fill-rule="evenodd" clip-rule="evenodd" d="M92.2678 28.8009C93.7785 30.3092 93.7785 32.755 92.2678 34.2634C90.7581 35.7718 88.3087 35.7718 86.7982 34.2634L77.589 25.0668C81.1325 22.4264 86.1722 22.7131 89.3907 25.9273L92.2678 28.8009Z" fill="#EFEFEF"/>
<path fill-rule="evenodd" clip-rule="evenodd" d="M71.4907 41.9482C69.9803 43.4567 67.5312 43.4567 66.0208 41.9482C64.5103 40.4397 64.5103 37.9941 66.0208 36.4856L75.2298 27.2891C77.8739 30.8278 77.5867 35.8606 74.3682 39.0746L71.4907 41.9482Z" fill="#9A9A9A"/>
<path fill-rule="evenodd" clip-rule="evenodd" d="M58.3254 21.1992C56.8149 19.6907 56.8149 17.2451 58.3254 15.7366C59.836 14.2281 62.2849 14.2281 63.7955 15.7366L73.0046 24.9332C69.4611 27.5736 64.4213 27.2868 61.2029 24.0728L58.3254 21.1992Z" fill="#4E4E4E"/>
<path fill-rule="evenodd" clip-rule="evenodd" d="M77.0448 40.822C79.272 38.349 80.3073 35.1845 80.1502 32.0688L84.573 36.4856C84.5839 36.4966 84.5951 36.5075 84.6062 36.5185V39.6718C84.6062 41.805 82.8744 43.5344 80.7383 43.5344C79.0032 43.5344 77.535 42.3935 77.0448 40.822Z" fill="#4E4E4E"/>
<path fill-rule="evenodd" clip-rule="evenodd" d="M59.4532 26.7454C61.9295 28.9697 65.0982 30.0035 68.2181 29.8467L63.7955 34.2634C63.7844 34.2744 63.7734 34.2855 63.7625 34.2964H60.605C58.4688 34.2966 56.7371 32.5671 56.7371 30.4338C56.7371 28.7012 57.8795 27.2349 59.4532 26.7454Z" fill="#BABABA"/>
<path fill-rule="evenodd" clip-rule="evenodd" d="M91.1401 23.2546C88.664 21.0302 85.4953 19.9964 82.3754 20.1532L86.798 15.7365C86.8091 15.7255 86.82 15.7145 86.831 15.7034H89.9887C92.1252 15.7034 93.8569 17.4328 93.8569 19.5661C93.8569 21.2988 92.714 22.765 91.1401 23.2546Z" fill="#9A9A9A"/>
<path fill-rule="evenodd" clip-rule="evenodd" d="M73.5488 9.17783C71.3215 11.6508 70.2864 14.8152 70.4433 17.931L66.0207 13.5143C66.0096 13.5033 65.9986 13.4923 65.9875 13.4813V10.328C65.9875 8.19479 67.7192 6.46533 69.8554 6.46533C71.5904 6.46533 73.0586 7.60631 73.5488 9.17783Z" fill="#EFEFEF"/>
<path fill-rule="evenodd" clip-rule="evenodd" d="M69.8556 3.32275C65.9814 3.32275 62.8407 6.45917 62.8407 10.3281V11.6906C60.5099 11.0824 57.9269 11.6902 56.1004 13.5143C53.3609 16.25 53.3609 20.6856 56.1004 23.4213L57.065 24.3847C54.9863 25.6006 53.5903 27.8544 53.5903 30.4338C53.5903 34.3027 56.731 37.4392 60.6052 37.4392H61.9694C61.3604 39.7668 61.9691 42.3463 63.7956 44.1702C66.5351 46.906 70.9767 46.906 73.7161 44.1702L76.5935 41.2968C79.1319 38.7619 80.3174 35.3875 80.1501 32.0686L84.573 36.4854C87.3124 39.2211 91.7541 39.2211 94.4937 36.4854C97.2333 33.7496 97.2333 29.314 94.4937 26.5784L93.5294 25.6151C95.6072 24.3993 97.0036 22.1455 97.0036 19.566C97.0036 15.6971 93.8624 12.5607 89.9887 12.5607H88.6243C89.2334 10.233 88.6247 7.65341 86.7981 5.82938C84.0588 3.09362 79.6172 3.09362 76.8777 5.82938L74.0002 8.70297C71.4619 11.2379 70.2764 14.6121 70.4437 17.931L66.0209 13.5143C66.0098 13.5033 65.9988 13.4923 65.9877 13.4813V10.3281C65.9877 8.19482 67.7194 6.46547 69.8556 6.46547C71.5906 6.46547 73.0588 7.60634 73.5491 9.17786C73.6944 9.01656 73.8448 8.85819 74.0002 8.70297L75.9129 6.79275C74.6954 4.71688 72.4385 3.32275 69.8556 3.32275ZM86.8311 15.7034C86.8201 15.7144 86.8092 15.7255 86.7981 15.7364L82.3755 20.1531C85.4955 19.9963 88.6642 21.03 91.1402 23.2545C92.7141 22.7649 93.857 21.2986 93.857 19.566C93.857 17.4327 92.1253 15.7034 89.9887 15.7034H86.8311ZM63.7625 34.2964C63.7735 34.2853 63.7845 34.2743 63.7956 34.2633L68.2182 29.8465C65.0983 30.0034 61.9297 28.9696 59.4534 26.7454C57.8797 27.2349 56.7372 28.7011 56.7372 30.4338C56.7372 32.5671 58.469 34.2964 60.6052 34.2964H63.7625ZM80.7383 46.6771C78.1552 46.6771 75.8983 45.2828 74.6808 43.207L76.5935 41.2968C76.7491 41.1415 76.8994 40.9832 77.0447 40.8219C77.5349 42.3934 79.0031 43.5344 80.7383 43.5344C82.8745 43.5344 84.6062 41.805 84.6062 39.6718V36.5185C85.5126 37.4119 86.6021 38.0088 87.7531 38.3092V39.6718C87.7531 43.5407 84.6125 46.6771 80.7383 46.6771ZM84.573 8.05156C83.0624 6.54319 80.6134 6.54319 79.1029 8.05156L76.2254 10.9251C73.007 14.1393 72.7198 19.1721 75.3638 22.7108L84.573 13.5142C86.0835 12.0057 86.0835 9.56004 84.573 8.05156ZM92.2679 34.2632C93.7786 32.7547 93.7786 30.309 92.2679 28.8006L89.3907 25.927C86.1723 22.713 81.1325 22.4261 77.589 25.0665L86.7981 34.2632C88.3087 35.7717 90.7582 35.7717 92.2679 34.2632ZM71.4908 41.9481C69.9803 43.4565 67.5313 43.4565 66.0208 41.9481C64.5104 40.4396 64.5104 37.9939 66.0208 36.4855L75.2299 27.2888C77.874 30.8275 77.5867 35.8605 74.3683 39.0745L71.4908 41.9481ZM58.3256 15.7364C56.8151 17.2449 56.8151 19.6906 58.3256 21.199L61.2031 24.0726C64.4216 27.2867 69.4612 27.5735 73.0047 24.9331L63.7956 15.7364C62.2851 14.2281 59.8361 14.2281 58.3256 15.7364Z" fill="white"/>
<path d="M1.66826 17.489H5.10837V28.1642H11.0168V31.0562H1.66826V17.489Z" fill="white"/>
<path d="M17.2629 31.3473C16.1097 31.3473 15.099 31.1402 14.2309 30.7262C13.3627 30.2991 12.689 29.7169 12.2095 28.9794C11.7431 28.2288 11.5099 27.3684 11.5099 26.3978C11.5099 25.4274 11.7431 24.5734 12.2095 23.8359C12.689 23.0853 13.3627 22.5031 14.2309 22.089C15.099 21.662 16.1097 21.4485 17.2629 21.4485C18.4161 21.4485 19.4267 21.662 20.2949 22.089C21.163 22.5031 21.8303 23.0853 22.2967 23.8359C22.7762 24.5734 23.0158 25.4274 23.0158 26.3978C23.0158 27.3684 22.7762 28.2288 22.2967 28.9794C21.8303 29.7169 21.163 30.2991 20.2949 30.7262C19.4267 31.1402 18.4161 31.3473 17.2629 31.3473ZM17.2629 28.6882C17.9496 28.6882 18.4938 28.4876 18.8955 28.0865C19.3101 27.6724 19.5174 27.1096 19.5174 26.3978C19.5174 25.6862 19.3101 25.1298 18.8955 24.7287C18.4938 24.3146 17.9496 24.1076 17.2629 24.1076C16.5761 24.1076 16.0255 24.3146 15.6109 24.7287C15.2091 25.1298 15.0083 25.6862 15.0083 26.3978C15.0083 27.1096 15.2091 27.6724 15.6109 28.0865C16.0255 28.4876 16.5761 28.6882 17.2629 28.6882Z" fill="white"/>
<path d="M29.4413 35.5203C28.8194 35.5203 28.1909 35.4621 27.556 35.3457C26.9341 35.2291 26.3963 35.0739 25.9429 34.8798V32.5119C26.9664 32.9517 28.1326 33.1717 29.4413 33.1717C30.3872 33.1717 31.0674 32.9776 31.482 32.5895C31.9097 32.2013 32.1234 31.632 32.1234 30.8814V30.3186C31.7477 30.6421 31.2812 30.8944 30.724 31.0756C30.1798 31.2567 29.5967 31.3473 28.9748 31.3473C27.9901 31.3473 27.122 31.1402 26.3704 30.7262C25.6189 30.3121 25.0293 29.7298 24.6018 28.9794C24.1871 28.2288 23.9799 27.3684 23.9799 26.3978C23.9799 25.4145 24.1871 24.5475 24.6018 23.7971C25.0164 23.0465 25.5994 22.4707 26.351 22.0696C27.1025 21.6556 27.9642 21.4485 28.9359 21.4485C30.2706 21.4485 31.3719 21.8561 32.24 22.6713V21.7396H35.5442V30.4157C35.5442 32.0331 35.0452 33.2883 34.0476 34.1811C33.0629 35.0739 31.5274 35.5203 29.4413 35.5203ZM29.83 28.7076C30.3612 28.7076 30.8342 28.5717 31.2488 28.3C31.6635 28.0283 31.9549 27.666 32.1234 27.2131V25.5827C31.942 25.1298 31.644 24.7739 31.2294 24.5151C30.8147 24.2435 30.3483 24.1076 29.83 24.1076C29.1303 24.1076 28.5666 24.3146 28.1391 24.7287C27.7115 25.1298 27.4977 25.6797 27.4977 26.3785C27.4977 27.0901 27.7115 27.6595 28.1391 28.0865C28.5666 28.5006 29.1303 28.7076 29.83 28.7076Z" fill="white"/>
<path d="M42.1649 31.3473C41.0117 31.3473 40.0011 31.1402 39.133 30.7262C38.2648 30.2991 37.591 29.7169 37.1116 28.9794C36.6451 28.2288 36.4119 27.3684 36.4119 26.3978C36.4119 25.4274 36.6451 24.5734 37.1116 23.8359C37.591 23.0853 38.2648 22.5031 39.133 22.089C40.0011 21.662 41.0117 21.4485 42.1649 21.4485C43.3181 21.4485 44.3287 21.662 45.1968 22.089C46.065 22.5031 46.7323 23.0853 47.1988 23.8359C47.6781 24.5734 47.9179 25.4274 47.9179 26.3978C47.9179 27.3684 47.6781 28.2288 47.1988 28.9794C46.7323 29.7169 46.065 30.2991 45.1968 30.7262C44.3287 31.1402 43.3181 31.3473 42.1649 31.3473ZM42.1649 28.6882C42.8516 28.6882 43.3958 28.4876 43.7976 28.0865C44.2121 27.6724 44.4195 27.1096 44.4195 26.3978C44.4195 25.6862 44.2121 25.1298 43.7976 24.7287C43.3958 24.3146 42.8516 24.1076 42.1649 24.1076C41.4782 24.1076 40.9275 24.3146 40.5129 24.7287C40.1111 25.1298 39.9103 25.6862 39.9103 26.3978C39.9103 27.1096 40.1111 27.6724 40.5129 28.0865C40.9275 28.4876 41.4782 28.6882 42.1649 28.6882Z" fill="white"/>
<path d="M102.783 17.489H106.224V31.0562H102.783V17.489Z" fill="white"/>
<path d="M107.965 21.7396H111.27V22.6713C112.137 21.8561 113.239 21.4485 114.573 21.4485C115.545 21.4485 116.407 21.6556 117.158 22.0696C117.91 22.4707 118.493 23.0465 118.907 23.7971C119.322 24.5346 119.53 25.3951 119.53 26.3785C119.53 27.3489 119.322 28.2159 118.907 28.9794C118.493 29.7298 117.91 30.3121 117.158 30.7262C116.42 31.1402 115.558 31.3473 114.573 31.3473C113.952 31.3473 113.355 31.2502 112.786 31.0561C112.229 30.875 111.762 30.6226 111.386 30.2991V35.3067H107.965V21.7396ZM113.679 28.6882C114.379 28.6882 114.943 28.4812 115.37 28.0671C115.798 27.6531 116.012 27.0901 116.012 26.3785C116.012 25.6667 115.798 25.1104 115.37 24.7092C114.943 24.2952 114.379 24.0882 113.679 24.0882C113.161 24.0882 112.694 24.224 112.28 24.4958C111.865 24.7546 111.568 25.1104 111.386 25.5633V27.2131C111.568 27.666 111.865 28.0283 112.28 28.3C112.694 28.5588 113.161 28.6882 113.679 28.6882Z" fill="white"/>
<path d="M124.629 31.3473C123.878 31.3473 123.094 31.2697 122.278 31.1144C121.462 30.9721 120.813 30.765 120.334 30.4933V27.9895C120.865 28.3 121.5 28.5588 122.239 28.7659C122.99 28.9599 123.677 29.057 124.299 29.057C124.752 29.057 125.083 29.0246 125.29 28.9599C125.498 28.8952 125.601 28.7659 125.601 28.5717C125.601 28.4164 125.53 28.2935 125.388 28.2029C125.258 28.0995 125.011 27.9959 124.649 27.8924C124.299 27.776 123.891 27.6531 123.424 27.5236C122.634 27.2907 122.013 27.0513 121.559 26.8054C121.105 26.5596 120.768 26.249 120.547 25.8738C120.328 25.4986 120.218 25.0263 120.218 24.457C120.218 23.4476 120.613 22.6972 121.403 22.2054C122.206 21.7008 123.301 21.4485 124.688 21.4485C125.362 21.4485 126.068 21.5197 126.806 21.662C127.558 21.8044 128.121 21.992 128.497 22.2249V24.6899C128.109 24.4311 127.59 24.2175 126.942 24.0494C126.307 23.8811 125.711 23.7971 125.154 23.7971C124.714 23.7971 124.37 23.8423 124.124 23.9328C123.878 24.0106 123.755 24.1528 123.755 24.3599C123.755 24.554 123.878 24.7028 124.124 24.8063C124.37 24.9098 124.811 25.0392 125.445 25.1945C125.86 25.2981 126.035 25.3433 125.97 25.3303C126.799 25.5503 127.441 25.7962 127.894 26.0679C128.348 26.3397 128.665 26.6632 128.847 27.0384C129.042 27.4007 129.139 27.8665 129.139 28.4359C129.139 29.3287 128.75 30.0403 127.973 30.5709C127.208 31.0885 126.093 31.3473 124.629 31.3473Z" fill="white"/>
<path d="M134.245 31.3472C132.963 31.3472 131.998 30.9913 131.35 30.2797C130.716 29.568 130.398 28.6299 130.398 27.4654V21.7395H133.819V27.0771C133.819 28.1511 134.304 28.6881 135.276 28.6881C135.717 28.6881 136.119 28.5846 136.481 28.3775C136.844 28.1705 137.142 27.8665 137.375 27.4654V21.7395H140.796V31.056H137.492V30.0468C137.091 30.4737 136.604 30.7972 136.034 31.0172C135.464 31.2372 134.868 31.3472 134.245 31.3472Z" fill="white"/>
<path d="M142.547 21.7396H145.715V22.7489C146.104 22.3349 146.551 22.0178 147.056 21.7978C147.561 21.5649 148.099 21.4485 148.669 21.4485C149.369 21.4485 149.927 21.552 150.341 21.759C150.769 21.9661 151.112 22.2766 151.371 22.6907C151.759 22.3025 152.233 21.9984 152.79 21.7785C153.347 21.5585 153.911 21.4485 154.481 21.4485C155.712 21.4485 156.587 21.7656 157.105 22.3996C157.623 23.0207 157.882 23.9199 157.882 25.0974V31.0561H154.617V25.5827C154.617 25.0651 154.52 24.6899 154.325 24.457C154.131 24.224 153.807 24.1076 153.354 24.1076C152.771 24.1076 152.297 24.3146 151.935 24.7287C151.948 24.9486 151.954 25.2851 151.954 25.7379V31.0561H148.689V25.4469C148.689 24.9681 148.605 24.6251 148.436 24.4182C148.268 24.2111 147.97 24.1076 147.543 24.1076C146.881 24.1076 146.312 24.4763 145.832 25.2139V31.0561H142.547V21.7396Z" fill="white"/>
</svg>
