<svg width="163" height="51" viewBox="0 0 163 51" fill="none" xmlns="http://www.w3.org/2000/svg">
<path fill-rule="evenodd" clip-rule="evenodd" d="M80.5751 8.21274C82.1138 6.6742 84.6083 6.6742 86.147 8.21274C87.6856 9.75139 87.6856 12.246 86.147 13.7846L76.7664 23.1652C74.0732 19.5557 74.3658 14.4222 77.6442 11.1438L80.5751 8.21274Z" fill="#BABABA"/>
<path fill-rule="evenodd" clip-rule="evenodd" d="M93.9853 29.3768C95.5241 30.9154 95.5241 33.4101 93.9853 34.9486C92.4475 36.4872 89.9525 36.4872 88.4138 34.9486L79.0333 25.5681C82.6427 22.8749 87.7762 23.1674 91.0546 26.4458L93.9853 29.3768Z" fill="#EFEFEF"/>
<path fill-rule="evenodd" clip-rule="evenodd" d="M72.8215 42.7873C71.2829 44.3259 68.7882 44.3259 67.2497 42.7873C65.7111 41.2486 65.7111 38.7541 67.2497 37.2154L76.6302 27.835C79.3234 31.4444 79.0309 36.5779 75.7525 39.8562L72.8215 42.7873Z" fill="#9A9A9A"/>
<path fill-rule="evenodd" clip-rule="evenodd" d="M59.4111 21.6231C57.8725 20.0844 57.8725 17.5899 59.4111 16.0512C60.9498 14.5126 63.4443 14.5126 64.983 16.0512L74.3635 25.4318C70.7541 28.125 65.6205 27.8324 62.3422 24.5541L59.4111 21.6231Z" fill="#4E4E4E"/>
<path fill-rule="evenodd" clip-rule="evenodd" d="M78.4789 41.6384C80.7476 39.1159 81.8021 35.8882 81.6421 32.7102L86.1472 37.2153C86.1584 37.2265 86.1697 37.2377 86.181 37.2489V40.4652C86.181 42.6411 84.4171 44.4051 82.2412 44.4051C80.4738 44.4051 78.9783 43.2414 78.4789 41.6384Z" fill="#4E4E4E"/>
<path fill-rule="evenodd" clip-rule="evenodd" d="M60.5598 27.2803C63.0822 29.5491 66.31 30.6036 69.4879 30.4436L64.983 34.9487C64.9717 34.9599 64.9605 34.9712 64.9494 34.9824H61.7331C59.5571 34.9825 57.7932 33.2184 57.7932 31.0425C57.7932 29.2753 58.9569 27.7796 60.5598 27.2803Z" fill="#BABABA"/>
<path fill-rule="evenodd" clip-rule="evenodd" d="M92.8366 23.7196C90.3145 21.4507 87.0867 20.3962 83.9088 20.5561L88.4137 16.0511C88.425 16.04 88.4361 16.0286 88.4473 16.0173H91.6637C93.84 16.0173 95.6039 17.7814 95.6039 19.9573C95.6039 21.7247 94.4398 23.2202 92.8366 23.7196Z" fill="#9A9A9A"/>
<path fill-rule="evenodd" clip-rule="evenodd" d="M74.9179 9.36148C72.6491 11.8839 71.5947 15.1116 71.7546 18.2897L67.2496 13.7846C67.2383 13.7734 67.2271 13.7622 67.2158 13.751V10.5347C67.2158 8.35877 68.9797 6.59473 71.1557 6.59473C72.923 6.59473 74.4185 7.75852 74.9179 9.36148Z" fill="#EFEFEF"/>
<path fill-rule="evenodd" clip-rule="evenodd" d="M71.1559 3.3894C67.2096 3.3894 64.0104 6.58855 64.0104 10.5348V11.9246C61.6363 11.3043 59.0051 11.9242 57.1446 13.7847C54.3541 16.5752 54.3541 21.0995 57.1446 23.89L58.1272 24.8726C56.0099 26.1128 54.5878 28.4117 54.5878 31.0427C54.5878 34.989 57.787 38.1881 61.7333 38.1881H63.1229C62.5026 40.5623 63.1226 43.1935 64.9831 45.0538C67.7736 47.8443 72.2978 47.8443 75.0883 45.0538L78.0192 42.1229C80.6048 39.5373 81.8124 36.0955 81.642 32.7102L86.1472 37.2153C88.9377 40.0057 93.462 40.0057 96.2526 37.2153C99.0432 34.4248 99.0432 29.9005 96.2526 27.1102L95.2703 26.1276C97.3868 24.8874 98.8093 22.5886 98.8093 19.9575C98.8093 16.0112 95.6096 12.8121 91.6637 12.8121H90.274C90.8944 10.4378 90.2743 7.80667 88.4138 5.94617C85.6234 3.15569 81.0992 3.15569 78.3087 5.94617L75.3777 8.87723C72.7921 11.4628 71.5845 14.9045 71.7549 18.2898L67.2498 13.7847C67.2385 13.7735 67.2273 13.7623 67.216 13.7512V10.5348C67.216 8.35891 68.9799 6.59498 71.1559 6.59498C72.9232 6.59498 74.4187 7.75866 74.9181 9.36162C75.0661 9.19709 75.2193 9.03555 75.3777 8.87723L77.326 6.9288C76.0858 4.81142 73.7869 3.3894 71.1559 3.3894ZM88.4474 16.0177C88.4362 16.0289 88.4251 16.0402 88.4138 16.0514L83.9089 20.5563C87.0869 20.3965 90.3146 21.4508 92.8367 23.7198C94.4399 23.2204 95.604 21.7248 95.604 19.9575C95.604 17.7816 93.8401 16.0177 91.6637 16.0177H88.4474ZM64.9494 34.9826C64.9606 34.9713 64.9718 34.9599 64.9831 34.9487L69.488 30.4437C66.3101 30.6037 63.0824 29.5492 60.5601 27.2805C58.9571 27.7798 57.7933 29.2753 57.7933 31.0427C57.7933 33.2186 59.5574 34.9826 61.7333 34.9826H64.9494ZM82.2412 47.6108C79.61 47.6108 77.3111 46.1887 76.0709 44.0713L78.0192 42.1229C78.1777 41.9646 78.3308 41.803 78.4788 41.6385C78.9781 43.2415 80.4737 44.4053 82.2412 44.4053C84.4171 44.4053 86.181 42.6413 86.181 40.4654V37.2491C87.1043 38.1603 88.2141 38.7692 89.3866 39.0755V40.4654C89.3866 44.4117 86.1874 47.6108 82.2412 47.6108ZM86.1472 8.21278C84.6086 6.67425 82.114 6.67425 80.5753 8.21278L77.6443 11.1438C74.366 14.4222 74.0734 19.5557 76.7666 23.1652L86.1472 13.7846C87.6858 12.246 87.6858 9.75143 86.1472 8.21278ZM93.9853 34.9486C95.5242 33.41 95.5242 30.9154 93.9853 29.3768L91.0546 26.4457C87.7763 23.1674 82.6427 22.8748 79.0333 25.5681L88.4138 34.9486C89.9525 36.4873 92.4476 36.4873 93.9853 34.9486ZM72.8216 42.7872C71.2829 44.3259 68.7884 44.3259 67.2497 42.7872C65.7112 41.2486 65.7112 38.754 67.2497 37.2154L76.6303 27.8348C79.3235 31.4443 79.0309 36.5779 75.7526 39.8562L72.8216 42.7872ZM59.4112 16.0514C57.8727 17.59 57.8727 20.0846 59.4112 21.6232L62.3423 24.5543C65.6207 27.8326 70.7542 28.1252 74.3636 25.4319L64.9831 16.0514C63.4444 14.5128 60.9499 14.5128 59.4112 16.0514Z" fill="white"/>
<path d="M1.69931 17.8386H5.20345V28.7273H11.2219V31.6771H1.69931V17.8386Z" fill="white"/>
<path d="M17.5842 31.9742C16.4096 31.9742 15.38 31.763 14.4957 31.3407C13.6115 30.9051 12.9252 30.3112 12.4368 29.5589C11.9617 28.7934 11.7241 27.9157 11.7241 26.9258C11.7241 25.9359 11.9617 25.0648 12.4368 24.3126C12.9252 23.547 13.6115 22.9531 14.4957 22.5308C15.38 22.0952 16.4096 21.8774 17.5842 21.8774C18.7589 21.8774 19.7883 22.0952 20.6726 22.5308C21.5569 22.9531 22.2367 23.547 22.7117 24.3126C23.2001 25.0648 23.4443 25.9359 23.4443 26.9258C23.4443 27.9157 23.2001 28.7934 22.7117 29.5589C22.2367 30.3112 21.5569 30.9051 20.6726 31.3407C19.7883 31.763 18.7589 31.9742 17.5842 31.9742ZM17.5842 29.2619C18.2837 29.2619 18.8381 29.0574 19.2472 28.6482C19.6696 28.2258 19.8807 27.6518 19.8807 26.9258C19.8807 26.1999 19.6696 25.6324 19.2472 25.2233C18.8381 24.8009 18.2837 24.5898 17.5842 24.5898C16.8847 24.5898 16.3238 24.8009 15.9015 25.2233C15.4922 25.6324 15.2877 26.1999 15.2877 26.9258C15.2877 27.6518 15.4922 28.2258 15.9015 28.6482C16.3238 29.0574 16.8847 29.2619 17.5842 29.2619Z" fill="white"/>
<path d="M29.9893 36.2307C29.3558 36.2307 28.7157 36.1713 28.069 36.0526C27.4354 35.9337 26.8876 35.7754 26.4258 35.5774V33.1621C27.4684 33.6108 28.6562 33.8352 29.9893 33.8352C30.9528 33.8352 31.6457 33.6372 32.068 33.2412C32.5036 32.8453 32.7214 32.2646 32.7214 31.499V30.925C32.3387 31.2549 31.8635 31.5122 31.2959 31.697C30.7416 31.8819 30.1476 31.9742 29.5141 31.9742C28.5111 31.9742 27.6268 31.763 26.8613 31.3407C26.0958 30.9183 25.4952 30.3244 25.0597 29.5589C24.6373 28.7934 24.4262 27.9157 24.4262 26.9258C24.4262 25.9227 24.6373 25.0384 25.0597 24.273C25.482 23.5074 26.076 22.9201 26.8415 22.511C27.607 22.0886 28.4847 21.8774 29.4746 21.8774C30.834 21.8774 31.9558 22.2932 32.8401 23.1247V22.1744H36.2058V31.024C36.2058 32.6737 35.6976 33.954 34.6813 34.8647C33.6783 35.7754 32.1143 36.2307 29.9893 36.2307ZM30.3852 29.2818C30.9264 29.2818 31.4081 29.1432 31.8304 28.866C32.2528 28.5888 32.5497 28.2193 32.7214 27.7573V26.0944C32.5366 25.6324 32.233 25.2694 31.8107 25.0054C31.3883 24.7283 30.9132 24.5898 30.3852 24.5898C29.6726 24.5898 29.0984 24.8009 28.6629 25.2233C28.2273 25.6324 28.0095 26.1933 28.0095 26.906C28.0095 27.6319 28.2273 28.2126 28.6629 28.6482C29.0984 29.0705 29.6726 29.2818 30.3852 29.2818Z" fill="white"/>
<path d="M42.9498 31.9742C41.7751 31.9742 40.7457 31.763 39.8614 31.3407C38.9771 30.9051 38.2907 30.3112 37.8024 29.5589C37.3272 28.7934 37.0896 27.9157 37.0896 26.9258C37.0896 25.9359 37.3272 25.0648 37.8024 24.3126C38.2907 23.547 38.9771 22.9531 39.8614 22.5308C40.7457 22.0952 41.7751 21.8774 42.9498 21.8774C44.1244 21.8774 45.1538 22.0952 46.0381 22.5308C46.9224 22.9531 47.6022 23.547 48.0774 24.3126C48.5656 25.0648 48.8099 25.9359 48.8099 26.9258C48.8099 27.9157 48.5656 28.7934 48.0774 29.5589C47.6022 30.3112 46.9224 30.9051 46.0381 31.3407C45.1538 31.763 44.1244 31.9742 42.9498 31.9742ZM42.9498 29.2619C43.6492 29.2619 44.2036 29.0574 44.6128 28.6482C45.0351 28.2258 45.2463 27.6518 45.2463 26.9258C45.2463 26.1999 45.0351 25.6324 44.6128 25.2233C44.2036 24.8009 43.6492 24.5898 42.9498 24.5898C42.2503 24.5898 41.6893 24.8009 41.267 25.2233C40.8578 25.6324 40.6532 26.1999 40.6532 26.9258C40.6532 27.6518 40.8578 28.2258 41.267 28.6482C41.6893 29.0574 42.2503 29.2619 42.9498 29.2619Z" fill="white"/>
<path d="M104.696 17.8386H108.201V31.6771H104.696V17.8386Z" fill="white"/>
<path d="M109.975 22.1744H113.341V23.1247C114.224 22.2932 115.346 21.8774 116.706 21.8774C117.696 21.8774 118.574 22.0886 119.339 22.511C120.105 22.9201 120.698 23.5074 121.121 24.273C121.543 25.0252 121.755 25.903 121.755 26.906C121.755 27.8959 121.543 28.7802 121.121 29.5589C120.698 30.3244 120.105 30.9183 119.339 31.3407C118.587 31.763 117.709 31.9742 116.706 31.9742C116.073 31.9742 115.465 31.8752 114.885 31.6772C114.318 31.4925 113.842 31.2351 113.459 30.9051V36.0129H109.975V22.1744ZM115.795 29.2619C116.508 29.2619 117.083 29.0508 117.517 28.6284C117.953 28.2061 118.171 27.6319 118.171 26.906C118.171 26.1801 117.953 25.6126 117.517 25.2034C117.083 24.7811 116.508 24.5699 115.795 24.5699C115.268 24.5699 114.792 24.7085 114.37 24.9857C113.947 25.2497 113.645 25.6126 113.459 26.0745V27.7573C113.645 28.2193 113.947 28.5888 114.37 28.866C114.792 29.13 115.268 29.2619 115.795 29.2619Z" fill="white"/>
<path d="M126.949 31.9742C126.184 31.9742 125.386 31.8951 124.554 31.7366C123.723 31.5915 123.062 31.3803 122.574 31.1031V28.5492C123.115 28.866 123.761 29.13 124.514 29.3412C125.279 29.5391 125.979 29.6381 126.613 29.6381C127.074 29.6381 127.411 29.6051 127.622 29.5391C127.834 29.4731 127.939 29.3412 127.939 29.1432C127.939 28.9847 127.867 28.8593 127.722 28.767C127.59 28.6614 127.338 28.5558 126.969 28.4502C126.613 28.3315 126.197 28.2061 125.722 28.0741C124.917 27.8365 124.284 27.5923 123.821 27.3415C123.359 27.0908 123.016 26.774 122.791 26.3913C122.567 26.0086 122.455 25.5268 122.455 24.9461C122.455 23.9166 122.858 23.1511 123.663 22.6495C124.481 22.1348 125.596 21.8774 127.009 21.8774C127.695 21.8774 128.415 21.9501 129.166 22.0952C129.932 22.2404 130.506 22.4318 130.889 22.6694V25.1837C130.493 24.9197 129.965 24.7018 129.305 24.5303C128.659 24.3587 128.051 24.273 127.483 24.273C127.035 24.273 126.685 24.3191 126.435 24.4115C126.184 24.4907 126.059 24.6359 126.059 24.8471C126.059 25.0451 126.184 25.1969 126.435 25.3024C126.685 25.408 127.134 25.54 127.781 25.6983C128.203 25.804 128.381 25.8501 128.315 25.8369C129.16 26.0613 129.813 26.3121 130.275 26.5893C130.737 26.8665 131.06 27.1964 131.245 27.5791C131.444 27.9487 131.542 28.4238 131.542 29.0046C131.542 29.9153 131.147 30.6411 130.355 31.1823C129.575 31.7102 128.44 31.9742 126.949 31.9742Z" fill="white"/>
<path d="M136.744 31.9742C135.438 31.9742 134.455 31.6112 133.795 30.8853C133.149 30.1594 132.825 29.2026 132.825 28.0147V22.1743H136.31V27.6187C136.31 28.7142 136.804 29.2619 137.794 29.2619C138.243 29.2619 138.652 29.1563 139.022 28.9451C139.391 28.7339 139.695 28.4238 139.932 28.0147V22.1743H143.416V31.6772H140.052V30.6477C139.642 31.0832 139.147 31.4132 138.566 31.6376C137.986 31.862 137.378 31.9742 136.744 31.9742Z" fill="white"/>
<path d="M145.2 22.1744H148.428V23.2039C148.824 22.7816 149.279 22.4582 149.794 22.2338C150.308 21.9962 150.856 21.8774 151.437 21.8774C152.15 21.8774 152.717 21.983 153.14 22.1942C153.575 22.4054 153.925 22.7222 154.189 23.1445C154.584 22.7485 155.067 22.4383 155.634 22.214C156.202 21.9896 156.776 21.8774 157.356 21.8774C158.61 21.8774 159.501 22.2008 160.029 22.8476C160.557 23.4811 160.821 24.3983 160.821 25.5993V31.6772H157.495V26.0944C157.495 25.5664 157.396 25.1837 157.198 24.9461C157 24.7085 156.67 24.5898 156.209 24.5898C155.614 24.5898 155.132 24.8009 154.763 25.2233C154.776 25.4476 154.783 25.7908 154.783 26.2527V31.6772H151.457V25.9558C151.457 25.4674 151.371 25.1176 151.199 24.9065C151.028 24.6953 150.724 24.5898 150.289 24.5898C149.615 24.5898 149.035 24.9658 148.546 25.7182V31.6772H145.2V22.1744Z" fill="white"/>
</svg>
