<svg width="100" height="100" viewBox="0 0 100 100" fill="none" xmlns="http://www.w3.org/2000/svg">
<mask id="mask0_1_22" style="mask-type:luminance" maskUnits="userSpaceOnUse" x="0" y="0" width="100" height="100">
<path d="M100 0H0V100H100V0Z" fill="white"/>
</mask>
<g mask="url(#mask0_1_22)">
<path d="M74.619 78.858H74.242V78.647H75.256V78.858H74.882V79.909H74.619V78.858ZM76.642 78.913H76.636L76.262 79.91H76.091L75.721 78.913H75.716V79.91H75.468V78.647H75.833L76.177 79.541L76.52 78.647H76.884V79.91H76.641L76.642 78.913Z" fill="#E76F00"/>
<path d="M40.893 53.045C40.893 53.045 38.272 54.57 42.759 55.085C48.194 55.705 50.972 55.617 56.962 54.483C56.962 54.483 58.536 55.47 60.736 56.326C47.308 62.08 30.347 55.992 40.893 53.045ZM39.252 45.536C39.252 45.536 36.313 47.712 40.802 48.176C46.609 48.775 51.194 48.824 59.128 47.296C59.128 47.296 60.226 48.409 61.951 49.017C45.717 53.765 27.634 49.392 39.252 45.536Z" fill="#5382A1"/>
<path d="M53.085 32.797C56.393 36.606 52.216 40.034 52.216 40.034C52.216 40.034 60.616 35.697 56.758 30.266C53.155 25.202 50.391 22.686 65.351 14.01C65.351 14.01 41.869 19.874 53.085 32.797Z" fill="#E76F00"/>
<path d="M70.844 58.6C70.844 58.6 72.783 60.198 68.707 61.435C60.957 63.782 36.449 64.491 29.641 61.528C27.193 60.463 31.783 58.986 33.226 58.676C34.732 58.349 35.592 58.41 35.592 58.41C32.871 56.493 18 62.175 28.039 63.802C55.416 68.242 77.945 61.803 70.844 58.6ZM42.154 37.755C42.154 37.755 29.687 40.716 37.739 41.791C41.139 42.246 47.916 42.143 54.228 41.614C59.388 41.179 64.568 40.254 64.568 40.254C64.568 40.254 62.749 41.033 61.433 41.932C48.774 45.261 24.318 43.712 31.358 40.306C37.313 37.428 42.154 37.755 42.154 37.755ZM64.517 50.255C77.385 43.568 71.436 37.141 67.282 38.007C66.265 38.219 65.811 38.403 65.811 38.403C65.811 38.403 66.189 37.811 66.91 37.555C75.126 34.666 81.445 46.074 64.258 50.592C64.258 50.592 64.457 50.414 64.517 50.255Z" fill="#5382A1"/>
<path d="M56.758 0C56.758 0 63.885 7.12899 49.999 18.092C38.863 26.886 47.459 31.9 49.994 37.629C43.494 31.765 38.724 26.602 41.924 21.797C46.621 14.744 59.634 11.325 56.758 0Z" fill="#E76F00"/>
<path d="M43.418 68.376C55.771 69.166 74.739 67.937 75.188 62.092C75.188 62.092 74.325 64.308 64.98 66.068C54.437 68.051 41.433 67.82 33.721 66.548C33.721 66.548 35.3 67.855 43.418 68.376Z" fill="#5382A1"/>
<path d="M41.394 90.709C40.229 91.72 38.998 92.287 37.894 92.287C36.317 92.287 35.465 91.342 35.465 89.826C35.465 88.186 36.378 86.986 40.039 86.986H41.394V90.709ZM44.609 94.337V83.107C44.609 80.238 42.973 78.345 39.028 78.345C36.725 78.345 34.708 78.914 33.068 79.639L33.542 81.627C34.833 81.153 36.504 80.712 38.144 80.712C40.416 80.712 41.394 81.627 41.394 83.519V84.938H40.26C34.738 84.938 32.248 87.081 32.248 90.298C32.248 93.075 33.889 94.653 36.979 94.653C38.966 94.653 40.449 93.833 41.835 92.632L42.087 94.337H44.609ZM55.34 94.337H51.33L46.504 78.63H50.006L53 88.28L53.666 91.182C55.181 86.986 56.253 82.729 56.789 78.63H60.196C59.283 83.802 57.64 89.479 55.34 94.337ZM70.724 90.709C69.557 91.72 68.324 92.287 67.219 92.287C65.646 92.287 64.792 91.342 64.792 89.826C64.792 88.186 65.706 86.986 69.367 86.986H70.724V90.709ZM73.939 94.337V83.107C73.939 80.238 72.299 78.345 68.359 78.345C66.054 78.345 64.036 78.914 62.397 79.639L62.87 81.627C64.161 81.153 65.835 80.712 67.474 80.712C69.745 80.712 70.724 81.627 70.724 83.519V84.938H69.588C64.065 84.938 61.575 87.081 61.575 90.298C61.575 93.075 63.215 94.653 66.305 94.653C68.293 94.653 69.775 93.833 71.164 92.632L71.416 94.337H73.939ZM28.722 97.004C27.806 98.342 26.325 99.401 24.704 100L23.117 98.132C24.35 97.499 25.409 96.476 25.9 95.524C26.325 94.677 26.501 93.586 26.501 90.976V73.044H29.917V90.73C29.917 94.219 29.638 95.629 28.722 97.004Z" fill="#E76F00"/>
</g>
</svg>
