<svg width="102" height="102" viewBox="0 0 102 102" fill="none" xmlns="http://www.w3.org/2000/svg">
<mask id="mask0_1_35" style="mask-type:luminance" maskUnits="userSpaceOnUse" x="0" y="0" width="102" height="102">
<path d="M101.233 1.23408L1.23407 0.767029L0.767015 100.766L100.766 101.233L101.233 1.23408Z" fill="white"/>
</mask>
<g mask="url(#mask0_1_35)">
<path d="M86.2331 1.16403L16.2339 0.837087C7.95 0.798396 1.2027 7.48296 1.16401 15.7669L0.837074 85.7661C0.798383 94.05 7.48294 100.797 15.7669 100.836L85.7661 101.163C94.05 101.202 100.797 94.5171 100.836 86.2332L101.163 16.2339C101.202 7.95001 94.517 1.20272 86.2331 1.16403Z" fill="#F7DF1E"/>
<path d="M64.1769 73.3278C66.1143 76.6569 68.8384 79.0136 73.3303 79.0346C77.2363 79.0529 79.7844 77.1118 79.7971 74.3768C79.8117 71.2518 77.2782 70.068 72.9904 68.0949L70.652 67.108C63.8297 64.1461 59.3532 60.6092 59.3888 52.9922C59.4216 45.9613 64.7211 40.517 73.119 40.5562C79.174 40.5845 83.4609 42.7536 86.3653 48.2352L79.1165 52.8894C77.5672 49.9521 75.8157 48.7719 73.0807 48.7591C70.3467 48.7464 68.5805 50.4961 68.5696 52.8401C68.5568 55.5741 70.3093 56.7543 74.4031 58.5314L76.7415 59.5183C84.733 63.0717 89.2094 66.4127 89.172 74.4206C89.1328 82.8195 82.471 87.4754 73.4861 87.4335C64.6972 87.3924 59.0524 83.265 56.344 77.7833L64.1769 73.3278ZM30.9706 73.9537C32.5217 76.5 33.6817 78.8494 37.0027 78.8649C40.1277 78.8795 42.0861 77.7167 42.108 73.0287L42.2594 40.6071L51.6343 40.6509L51.4847 72.6825C51.4391 82.4474 45.7551 86.7179 37.3562 86.6787C29.7393 86.6431 25.4606 82.7171 23.3345 78.0191L30.9706 73.9537Z" fill="black"/>
</g>
</svg>
