<svg width="105" height="23" viewBox="0 0 105 23" fill="none" xmlns="http://www.w3.org/2000/svg">
<path d="M11.0527 12.6875V14.8945H0.808594L0.671875 13.1855L6.59961 3.78125H8.83594L6.41406 7.83398L3.46484 12.6875H11.0527ZM9.44141 3.78125V18H6.62891V3.78125H9.44141ZM12.8301 16.6426C12.8301 16.2259 12.9733 15.8776 13.2598 15.5977C13.5527 15.3177 13.9401 15.1777 14.4219 15.1777C14.9036 15.1777 15.2878 15.3177 15.5742 15.5977C15.8672 15.8776 16.0137 16.2259 16.0137 16.6426C16.0137 17.0592 15.8672 17.4076 15.5742 17.6875C15.2878 17.9674 14.9036 18.1074 14.4219 18.1074C13.9401 18.1074 13.5527 17.9674 13.2598 17.6875C12.9733 17.4076 12.8301 17.0592 12.8301 16.6426ZM21.0234 11.5254L18.7773 10.9883L19.5879 3.78125H27.5762V6.05664H21.9023L21.5508 9.21094C21.7396 9.10026 22.026 8.98307 22.4102 8.85938C22.7943 8.72917 23.224 8.66406 23.6992 8.66406C24.3893 8.66406 25.0013 8.77148 25.5352 8.98633C26.069 9.20117 26.5215 9.51367 26.8926 9.92383C27.2702 10.334 27.5566 10.8353 27.752 11.4277C27.9473 12.0202 28.0449 12.6908 28.0449 13.4395C28.0449 14.071 27.9473 14.6732 27.752 15.2461C27.5566 15.8125 27.2604 16.3203 26.8633 16.7695C26.4661 17.2122 25.9681 17.5605 25.3691 17.8145C24.7702 18.0684 24.0605 18.1953 23.2402 18.1953C22.6283 18.1953 22.0358 18.1042 21.4629 17.9219C20.8965 17.7396 20.3854 17.4694 19.9297 17.1113C19.4805 16.7533 19.1191 16.3203 18.8457 15.8125C18.5788 15.2982 18.4388 14.7122 18.4258 14.0547H21.2188C21.2578 14.4583 21.362 14.8066 21.5312 15.0996C21.707 15.3861 21.9382 15.6074 22.2246 15.7637C22.5111 15.9199 22.8464 15.998 23.2305 15.998C23.5885 15.998 23.8945 15.9297 24.1484 15.793C24.4023 15.6562 24.6074 15.4674 24.7637 15.2266C24.9199 14.9792 25.0339 14.6927 25.1055 14.3672C25.1836 14.0352 25.2227 13.6771 25.2227 13.293C25.2227 12.9089 25.1771 12.5605 25.0859 12.248C24.9948 11.9355 24.8548 11.6654 24.666 11.4375C24.4772 11.2096 24.2363 11.0339 23.9434 10.9102C23.6569 10.7865 23.3216 10.7246 22.9375 10.7246C22.4167 10.7246 22.013 10.806 21.7266 10.9688C21.4466 11.1315 21.2122 11.3171 21.0234 11.5254Z" fill="black"/>
<path d="M40 6.51388L41.0997 9.65653L41.2168 9.99139H41.5716H45.0222L42.2633 11.8527L41.9436 12.0684L42.071 12.4324L43.1448 15.5013L40.2796 13.5683L40 13.3796L39.7204 13.5683L36.8552 15.5013L37.929 12.4324L38.0564 12.0684L37.7367 11.8527L34.9778 9.99139H38.4284H38.7832L38.9003 9.65653L40 6.51388Z" fill="#B4690E" stroke="#B4690E"/>
<path d="M55 6.51388L56.0997 9.65653L56.2168 9.99139H56.5716H60.0222L57.2633 11.8527L56.9436 12.0684L57.071 12.4324L58.1448 15.5013L55.2796 13.5683L55 13.3796L54.7204 13.5683L51.8552 15.5013L52.929 12.4324L53.0564 12.0684L52.7367 11.8527L49.9778 9.99139H53.4284H53.7832L53.9003 9.65653L55 6.51388Z" fill="#B4690E" stroke="#B4690E"/>
<path d="M70 6.51388L71.0997 9.65653L71.2168 9.99139H71.5716H75.0222L72.2633 11.8527L71.9436 12.0684L72.071 12.4324L73.1448 15.5013L70.2796 13.5683L70 13.3796L69.7204 13.5683L66.8552 15.5013L67.929 12.4324L68.0564 12.0684L67.7367 11.8527L64.9778 9.99139H68.4284H68.7832L68.9003 9.65653L70 6.51388Z" fill="#B4690E" stroke="#B4690E"/>
<path d="M84 6.51388L85.0997 9.65653L85.2168 9.99139H85.5716H89.0222L86.2633 11.8527L85.9436 12.0684L86.071 12.4324L87.1448 15.5013L84.2796 13.5683L84 13.3796L83.7204 13.5683L80.8552 15.5013L81.929 12.4324L82.0564 12.0684L81.7367 11.8527L78.9778 9.99139H82.4284H82.7832L82.9003 9.65653L84 6.51388Z" fill="#B4690E" stroke="#B4690E"/>
<path d="M98 6.51388L99.0997 9.65653L99.2168 9.99139H99.5716H103.022L100.263 11.8527L99.9436 12.0684L100.071 12.4324L101.145 15.5013L98.2796 13.5683L98 13.3796L97.7204 13.5683L94.8552 15.5013L95.929 12.4324L96.0564 12.0684L95.7367 11.8527L92.9778 9.99139H96.4284H96.7832L96.9003 9.65653L98 6.51388Z" stroke="#B4690E"/>
<g clip-path="url(#clip0_32_305)">
<path d="M978 -1481H-462V781H978V-1481Z" fill="white"/>
<path d="M98 6.51392L99.0997 9.65657L99.2168 9.99143H99.5716H103.022L100.263 11.8528L99.9436 12.0684L100.071 12.4324L101.145 15.5013L98.2796 13.5683L98 13.3797L97.7204 13.5683L94.8552 15.5013L95.929 12.4324L96.0564 12.0684L95.7367 11.8528L92.9778 9.99143H96.4284H96.7832L96.9003 9.65657L98 6.51392Z" fill="#B4690E" stroke="#B4690E"/>
</g>
<defs>
<clipPath id="clip0_32_305">
<rect width="7" height="12" fill="white" transform="translate(91 5)"/>
</clipPath>
</defs>
</svg>
