<svg width="88" height="88" viewBox="0 0 88 88" fill="none" xmlns="http://www.w3.org/2000/svg">
<path d="M44 87.75C68.162 87.75 87.75 68.162 87.75 44C87.75 19.838 68.162 0.25 44 0.25C19.838 0.25 0.25 19.838 0.25 44C0.25 68.162 19.838 87.75 44 87.75Z" fill="#8892BF"/>
<path d="M39.122 25.25H44.372L42.889 33.138H47.606C50.193 33.193 52.121 33.772 53.389 34.873C54.682 35.974 55.063 38.067 54.531 41.15L51.982 54.903H46.655L49.09 41.77C49.343 40.393 49.267 39.416 48.862 38.837C48.456 38.259 47.581 37.97 46.237 37.97L42.014 37.929L38.894 54.903H33.644L39.122 25.25Z" fill="white"/>
<path fill-rule="evenodd" clip-rule="evenodd" d="M15.065 33.138H25.261C28.254 33.166 30.422 34.102 31.767 35.947C33.111 37.791 33.555 40.31 33.098 43.504C32.921 44.964 32.528 46.395 31.919 47.8C31.336 49.204 30.524 50.47 29.484 51.599C28.216 53.031 26.859 53.939 25.413 54.325C23.968 54.711 22.471 54.903 20.924 54.903H16.359L14.913 62.75H9.625L15.065 33.138ZM17.234 50.236L19.509 37.888H20.277C20.557 37.888 20.848 37.874 21.152 37.847C23.182 37.819 24.868 38.026 26.212 38.466C27.582 38.906 28.038 40.572 27.582 43.463C27.024 46.905 25.933 48.915 24.31 49.493C22.687 50.044 20.658 50.305 18.223 50.277H17.69C17.538 50.277 17.386 50.263 17.234 50.236Z" fill="white"/>
<path fill-rule="evenodd" clip-rule="evenodd" d="M70.364 33.138H60.168L54.728 62.75H60.016L61.462 54.903H66.027C67.574 54.903 69.071 54.711 70.516 54.325C71.962 53.939 73.319 53.031 74.587 51.599C75.627 50.47 76.438 49.204 77.022 47.8C77.631 46.395 78.024 44.964 78.201 43.504C78.658 40.31 78.214 37.791 76.87 35.947C75.525 34.102 73.357 33.166 70.364 33.138ZM64.612 37.888L62.337 50.236C62.489 50.263 62.641 50.277 62.793 50.277H63.326C65.761 50.305 67.79 50.044 69.413 49.493C71.036 48.915 72.127 46.905 72.685 43.463C73.142 40.572 72.685 38.906 71.315 38.466C69.971 38.026 68.285 37.819 66.255 37.847C65.951 37.874 65.66 37.888 65.38 37.888H64.612Z" fill="white"/>
</svg>
