<svg width="88" height="88" viewBox="0 0 88 88" fill="none" xmlns="http://www.w3.org/2000/svg">
<path fill-rule="evenodd" clip-rule="evenodd" d="M34.6801 0.25C27.8101 0.25 22.24 5.639 22.24 12.287V20.62H43.76V22.935H12.6801C5.82005 22.935 0.25 28.324 0.25 34.972V53.028C0.25 59.676 5.82005 65.065 12.6801 65.065H19.85V54.88C19.85 48.232 25.42 42.843 32.29 42.843H55.24C61.05 42.843 65.76 38.283 65.76 32.658V12.287C65.76 5.639 60.1899 0.25 53.3199 0.25H34.6801ZM31.8101 15.065C34.1801 15.065 36.11 13.199 36.11 10.898C36.11 8.59699 34.1801 6.731 31.8101 6.731C29.4301 6.731 27.5 8.59699 27.5 10.898C27.5 13.199 29.4301 15.065 31.8101 15.065Z" fill="url(#paint0_linear_4_3)"/>
<path fill-rule="evenodd" clip-rule="evenodd" d="M53.3199 87.75C60.1899 87.75 65.75 82.361 65.75 75.713V67.38H44.24V65.065H75.3199C82.1799 65.065 87.75 59.676 87.75 53.028V34.972C87.75 28.324 82.1799 22.935 75.3199 22.935H68.15V33.12C68.15 39.768 62.58 45.158 55.71 45.158H32.76C26.95 45.158 22.24 49.718 22.24 55.343V75.713C22.24 82.361 27.8101 87.75 34.6801 87.75H53.3199ZM56.1899 72.935C53.8199 72.935 51.89 74.801 51.89 77.102C51.89 79.403 53.8199 81.268 56.1899 81.268C58.5699 81.268 60.5 79.403 60.5 77.102C60.5 74.801 58.5699 72.935 56.1899 72.935Z" fill="url(#paint1_linear_4_3)"/>
<defs>
<linearGradient id="paint0_linear_4_3" x1="33" y1="0.25" x2="33" y2="65.065" gradientUnits="userSpaceOnUse">
<stop stop-color="#327EBD"/>
<stop offset="1" stop-color="#1565A7"/>
</linearGradient>
<linearGradient id="paint1_linear_4_3" x1="55" y1="22.935" x2="55" y2="87.75" gradientUnits="userSpaceOnUse">
<stop stop-color="#FFDA4B"/>
<stop offset="1" stop-color="#F9C600"/>
</linearGradient>
</defs>
</svg>
