<svg width="24" height="24" viewBox="0 0 24 24" fill="none" xmlns="http://www.w3.org/2000/svg">
<path d="M21.5 23.25L13.625 15.375C13 15.875 12.281 16.2708 11.469 16.5625C10.656 16.8542 9.792 17 8.875 17C6.604 17 4.68201 16.2135 3.10901 14.6406C1.53601 13.0677 0.75 11.1458 0.75 8.875C0.75 6.6042 1.53601 4.6823 3.10901 3.1094C4.68201 1.5365 6.604 0.75 8.875 0.75C11.146 0.75 13.068 1.5365 14.641 3.1094C16.214 4.6823 17 6.6042 17 8.875C17 9.7917 16.854 10.6562 16.562 11.4688C16.271 12.2812 15.875 13 15.375 13.625L23.25 21.5L21.5 23.25ZM8.875 14.5C10.438 14.5 11.766 13.9531 12.859 12.8594C13.953 11.7656 14.5 10.4375 14.5 8.875C14.5 7.3125 13.953 5.9844 12.859 4.8906C11.766 3.7969 10.438 3.25 8.875 3.25C7.312 3.25 5.98399 3.7969 4.89099 4.8906C3.79699 5.9844 3.25 7.3125 3.25 8.875C3.25 10.4375 3.79699 11.7656 4.89099 12.8594C5.98399 13.9531 7.312 14.5 8.875 14.5Z" fill="#E8EAED"/>
</svg>
